<svg width="16" height="16" viewBox="0 0 16 16" fill="none" xmlns="http://www.w3.org/2000/svg">
<path d="M14 7.83342H2.00004C1.36004 7.83342 0.833374 7.30676 0.833374 6.66676V4.45342C0.833374 4.00008 1.14669 3.54009 1.56669 3.37342L7.56669 0.973438C7.82002 0.873437 8.18006 0.873437 8.43339 0.973438L14.4334 3.37342C14.8534 3.54009 15.1667 4.00675 15.1667 4.45342V6.66676C15.1667 7.30676 14.64 7.83342 14 7.83342ZM8.00004 1.89344C7.97337 1.89344 7.94672 1.89341 7.93339 1.90007L1.94002 4.3001C1.90002 4.3201 1.83337 4.40675 1.83337 4.45342V6.66676C1.83337 6.76009 1.90671 6.83342 2.00004 6.83342H14C14.0934 6.83342 14.1667 6.76009 14.1667 6.66676V4.45342C14.1667 4.40675 14.1067 4.3201 14.0601 4.3001L8.06006 1.90007C8.04673 1.89341 8.02671 1.89344 8.00004 1.89344Z" fill="#303435"/>
<path d="M14.6667 15.1667H1.33337C1.06004 15.1667 0.833374 14.94 0.833374 14.6667V12.6667C0.833374 12.0267 1.36004 11.5 2.00004 11.5H14C14.64 11.5 15.1667 12.0267 15.1667 12.6667V14.6667C15.1667 14.94 14.94 15.1667 14.6667 15.1667ZM1.83337 14.1667H14.1667V12.6667C14.1667 12.5733 14.0934 12.5 14 12.5H2.00004C1.90671 12.5 1.83337 12.5733 1.83337 12.6667V14.1667Z" fill="#303435"/>
<path d="M2.66663 12.4999C2.39329 12.4999 2.16663 12.2733 2.16663 11.9999V7.33325C2.16663 7.05992 2.39329 6.83325 2.66663 6.83325C2.93996 6.83325 3.16663 7.05992 3.16663 7.33325V11.9999C3.16663 12.2733 2.93996 12.4999 2.66663 12.4999Z" fill="#303435"/>
<path d="M5.33337 12.4999C5.06004 12.4999 4.83337 12.2733 4.83337 11.9999V7.33325C4.83337 7.05992 5.06004 6.83325 5.33337 6.83325C5.60671 6.83325 5.83337 7.05992 5.83337 7.33325V11.9999C5.83337 12.2733 5.60671 12.4999 5.33337 12.4999Z" fill="#303435"/>
<path d="M8 12.4999C7.72667 12.4999 7.5 12.2733 7.5 11.9999V7.33325C7.5 7.05992 7.72667 6.83325 8 6.83325C8.27333 6.83325 8.5 7.05992 8.5 7.33325V11.9999C8.5 12.2733 8.27333 12.4999 8 12.4999Z" fill="#303435"/>
<path d="M10.6666 12.4999C10.3933 12.4999 10.1666 12.2733 10.1666 11.9999V7.33325C10.1666 7.05992 10.3933 6.83325 10.6666 6.83325C10.94 6.83325 11.1666 7.05992 11.1666 7.33325V11.9999C11.1666 12.2733 10.94 12.4999 10.6666 12.4999Z" fill="#303435"/>
<path d="M13.3334 12.4999C13.06 12.4999 12.8334 12.2733 12.8334 11.9999V7.33325C12.8334 7.05992 13.06 6.83325 13.3334 6.83325C13.6067 6.83325 13.8334 7.05992 13.8334 7.33325V11.9999C13.8334 12.2733 13.6067 12.4999 13.3334 12.4999Z" fill="#303435"/>
<path d="M15.3333 15.1667H0.666626C0.393293 15.1667 0.166626 14.9401 0.166626 14.6667C0.166626 14.3934 0.393293 14.1667 0.666626 14.1667H15.3333C15.6066 14.1667 15.8333 14.3934 15.8333 14.6667C15.8333 14.9401 15.6066 15.1667 15.3333 15.1667Z" fill="#303435"/>
<path d="M8 6.16675C7.17333 6.16675 6.5 5.49341 6.5 4.66675C6.5 3.84008 7.17333 3.16675 8 3.16675C8.82667 3.16675 9.5 3.84008 9.5 4.66675C9.5 5.49341 8.82667 6.16675 8 6.16675ZM8 4.16675C7.72667 4.16675 7.5 4.39341 7.5 4.66675C7.5 4.94008 7.72667 5.16675 8 5.16675C8.27333 5.16675 8.5 4.94008 8.5 4.66675C8.5 4.39341 8.27333 4.16675 8 4.16675Z" fill="#303435"/>
</svg>
