<svg width="108" height="25" viewBox="0 0 108 25" fill="none" xmlns="http://www.w3.org/2000/svg">
<path d="M2.72185 0H23.1368C23.8587 0 24.551 0.277243 25.0615 0.770739C25.5719 1.26424 25.8587 1.93356 25.8587 2.63147V22.3685C25.8587 23.0664 25.5719 23.7358 25.0615 24.2293C24.551 24.7228 23.8587 25 23.1368 25H2.72185C1.99997 25 1.30766 24.7228 0.797212 24.2293C0.286766 23.7358 0 23.0664 0 22.3685L0 2.63147C0 1.93356 0.286766 1.26424 0.797212 0.770739C1.30766 0.277243 1.99997 0 2.72185 0V0Z" fill="#414145"/>
<path d="M2.0415 12.713H2.48678C2.55669 14.9551 3.52707 17.0827 5.1922 18.6447C6.85733 20.2068 9.08627 21.0804 11.4064 21.0804C13.7266 21.0804 15.9555 20.2068 17.6206 18.6447C19.2858 17.0827 20.2562 14.9551 20.3261 12.713H23.816C23.7497 15.4621 22.5735 18.077 20.539 19.9986C18.5045 21.9203 15.7731 22.9961 12.9288 22.9961C10.0845 22.9961 7.35304 21.9203 5.31851 19.9986C3.28398 18.077 2.10782 15.4621 2.0415 12.713H2.0415ZM2.91088 12.713H3.33061C3.34743 14.3793 4.0439 15.9718 5.2686 17.1443C6.49331 18.3168 8.14724 18.9746 9.87084 18.9746C11.5944 18.9746 13.2484 18.3168 14.4731 17.1443C15.6978 15.9718 16.3943 14.3793 16.4111 12.713H19.877C19.8129 14.8469 18.891 16.8726 17.3071 18.3601C15.7231 19.8475 13.6019 20.6796 11.3938 20.6796C9.18566 20.6796 7.06446 19.8475 5.48054 18.3601C3.89663 16.8726 2.97473 14.8469 2.91056 12.713H2.91088ZM3.76218 12.713H4.21275C4.21275 12.7612 4.20995 12.8103 4.20995 12.8594C4.20995 13.978 4.66956 15.0507 5.48768 15.8417C6.3058 16.6326 7.4154 17.077 8.57239 17.077C9.72938 17.077 10.839 16.6326 11.6571 15.8417C12.4752 15.0507 12.9348 13.978 12.9348 12.8594C12.9348 12.8106 12.9348 12.7615 12.9327 12.713H15.9702C15.9702 14.278 15.3271 15.779 14.1824 16.8856C13.0378 17.9923 11.4853 18.614 9.86648 18.614C8.24768 18.614 6.69519 17.9923 5.55053 16.8856C4.40586 15.779 3.7628 14.278 3.7628 12.713H3.76218ZM23.372 12.287C23.3008 10.0458 22.3298 7.91946 20.6649 6.35848C18.9999 4.79749 16.7718 3.92452 14.4525 3.92452C12.1332 3.92452 9.90507 4.79749 8.24012 6.35848C6.57516 7.91946 5.60422 10.0458 5.53302 12.287H2.0415C2.10053 9.53302 3.27357 6.91107 5.30902 4.98356C7.34446 3.05606 10.0802 1.97653 12.9294 1.97653C15.7786 1.97653 18.5143 3.05606 20.5497 4.98356C22.5852 6.91107 23.7582 9.53302 23.8173 12.287H23.372ZM22.5285 12.287C22.5116 10.6207 21.8152 9.02821 20.5905 7.85567C19.3658 6.68314 17.7118 6.02537 15.9882 6.02537C14.2646 6.02537 12.6107 6.68314 11.386 7.85567C10.1613 9.02821 9.46482 10.6207 9.448 12.287H5.98141C6.04557 10.1531 6.96747 8.12737 8.55139 6.63992C10.1353 5.15247 12.2565 4.32042 14.4646 4.32042C16.6728 4.32042 18.794 5.15247 20.3779 6.63992C21.9618 8.12737 22.8837 10.1531 22.9479 12.287H22.5285ZM21.646 12.287C21.6479 12.2388 21.6485 12.19 21.6485 12.1409C21.6485 11.0223 21.1889 9.94957 20.3708 9.15862C19.5527 8.36767 18.4431 7.92332 17.2861 7.92332C16.1291 7.92332 15.0195 8.36767 14.2013 9.15862C13.3832 9.94957 12.9236 11.0223 12.9236 12.1409C12.9236 12.19 12.9236 12.2388 12.9261 12.287H9.88954C9.88954 10.722 10.5326 9.22102 11.6773 8.11437C12.8219 7.00772 14.3744 6.38601 15.9932 6.38601C17.612 6.38601 19.1645 7.00772 20.3092 8.11437C21.4538 9.22102 22.0969 10.722 22.0969 12.287H21.646Z" fill="white"/>
<path d="M36.7926 7.67385C36.3173 7.69876 35.8508 7.54358 35.492 7.24124C35.3372 7.10174 35.2148 6.93207 35.1329 6.74346C35.051 6.55485 35.0114 6.35158 35.0168 6.14708C35.0124 5.87262 35.0873 5.60242 35.233 5.36683C35.3777 5.13828 35.5884 4.95565 35.8391 4.84144C36.1989 4.69096 36.5765 4.58401 36.9634 4.52301C37.4306 4.45195 37.8902 4.33961 38.3363 4.18741V4.05125C38.3467 3.94917 38.3342 3.84611 38.2995 3.74917C38.2648 3.65223 38.2088 3.56371 38.1353 3.4897C37.9084 3.35391 37.6414 3.29439 37.3759 3.3204C37.1693 3.30908 36.964 3.35912 36.7876 3.4638C36.6224 3.59345 36.5027 3.76927 36.4448 3.9672L35.1623 3.74336C35.2685 3.30095 35.532 2.90862 35.9067 2.63474C36.3805 2.36495 36.9273 2.2395 37.4759 2.27474C37.9559 2.24971 38.4358 2.32343 38.8841 2.49104C39.1553 2.60377 39.3831 2.79597 39.5353 3.04053C39.6906 3.42983 39.755 3.84748 39.7238 4.26363L39.7089 5.85848C39.7001 6.19447 39.7228 6.53054 39.7768 6.86256C39.8311 7.10292 39.9164 7.33571 40.0308 7.55545H38.6335C38.5965 7.46508 38.5522 7.33282 38.4977 7.15177C38.4737 7.06953 38.4572 7.01711 38.4472 6.9915C38.2241 7.20689 37.9617 7.38052 37.6732 7.50364C37.3947 7.61757 37.095 7.67548 36.7926 7.67385ZM38.3366 5.07732C38.1546 5.13577 37.8654 5.20596 37.4766 5.28639C37.2088 5.32676 36.9491 5.40715 36.7069 5.52469C36.6225 5.57601 36.553 5.6471 36.5046 5.73136C36.4562 5.81563 36.4306 5.91033 36.4302 6.0067C36.4297 6.09964 36.449 6.19168 36.4871 6.27702C36.5252 6.36237 36.5811 6.43916 36.6514 6.50256C36.7262 6.57205 36.8146 6.62635 36.9114 6.66226C37.0082 6.69816 37.1115 6.71495 37.2151 6.71163C37.4789 6.7083 37.7345 6.62307 37.9443 6.46852C38.1055 6.35832 38.2241 6.19931 38.2814 6.01664C38.3281 5.79765 38.3466 5.57393 38.3366 5.35056V5.07732ZM32.4607 7.67385C32.1455 7.67135 31.8355 7.5955 31.557 7.45272C31.2511 7.29693 30.988 7.07269 30.7899 6.7987V7.55726H29.478V0.428345H30.8915V2.99565C31.0785 2.77235 31.3144 2.59197 31.5823 2.46752C31.8502 2.34306 32.1433 2.27763 32.4404 2.27595C32.7448 2.26935 33.0469 2.32705 33.3258 2.445C33.6047 2.56296 33.8536 2.73834 34.0552 2.95889C34.5141 3.51284 34.742 4.21277 34.694 4.92097C34.694 5.79853 34.4758 6.48419 34.0427 6.95866C33.8501 7.18359 33.6084 7.3644 33.3348 7.48808C33.0612 7.61175 32.7627 7.6752 32.4607 7.67385ZM32.0643 3.3204C31.9028 3.3182 31.7429 3.3514 31.5965 3.41751C31.4501 3.48361 31.3212 3.58091 31.2193 3.70209C30.9683 4.03842 30.8483 4.44959 30.8802 4.86313C30.851 5.27452 30.9416 5.68561 31.1417 6.04978C31.2402 6.21573 31.3824 6.35353 31.5538 6.44919C31.7252 6.54485 31.9197 6.59496 32.1176 6.59445C32.2723 6.59376 32.4248 6.55852 32.5631 6.49147C32.7015 6.42443 32.8219 6.32739 32.915 6.20793C33.164 5.84947 33.2801 5.42006 33.2444 4.98966C33.2844 4.54003 33.1679 4.09037 32.9135 3.71203C32.8129 3.58766 32.6839 3.48755 32.5366 3.41959C32.3892 3.35163 32.2276 3.31767 32.0643 3.3204ZM47.8913 7.55605H46.4769V0.428345H47.8903V4.21151L49.5453 2.39283H51.2856L49.4596 4.2796L51.4149 7.55666H49.8924L48.5494 5.23699L47.8903 5.90337V7.55635L47.8913 7.55605ZM42.0808 7.55605H40.6664V2.39283H41.9792V3.1517C42.2683 2.76529 42.684 2.48466 43.1588 2.35533C43.6335 2.226 44.1396 2.25556 44.5948 2.43923C44.8237 2.52701 45.0254 2.67016 45.1806 2.85496C45.3137 3.02524 45.408 3.22082 45.4573 3.42885C45.5175 3.73162 45.5436 4.03979 45.5352 4.34798V7.55666H44.1234V4.92157C44.143 4.55869 44.1126 4.1949 44.033 3.83976C43.9794 3.68545 43.8763 3.55173 43.7385 3.45807C43.5933 3.36412 43.4215 3.31602 43.2468 3.3204C43.0117 3.31783 42.7815 3.38571 42.5878 3.51471C42.3985 3.63835 42.2576 3.81987 42.1877 4.03016C42.0972 4.41919 42.0609 4.81816 42.0796 5.2165V7.55545L42.0808 7.55605Z" fill="#414145"/>
<path d="M103.486 22.4203C102.141 22.4203 101.062 22.1528 100.276 21.6256C99.5039 21.1145 98.9534 20.346 98.7303 19.4671L101.364 19.0788C101.445 19.5204 101.687 19.9193 102.046 20.2031C102.469 20.4812 102.975 20.6163 103.485 20.5872C104.022 20.6223 104.557 20.496 105.017 20.2257C105.127 20.1484 105.216 20.0464 105.276 19.9284C105.337 19.8104 105.366 19.68 105.362 19.5484C105.368 19.3712 105.301 19.1991 105.175 19.0697C104.913 18.8955 104.612 18.7813 104.297 18.7356C102.19 18.2862 100.835 17.8701 100.271 17.4984C99.8987 17.2679 99.5943 16.9478 99.3879 16.5695C99.1816 16.1911 99.0804 15.7674 99.0942 15.3399C99.0905 14.9392 99.1802 14.5429 99.3564 14.1802C99.5327 13.8176 99.7911 13.4979 100.113 13.245C100.788 12.6816 101.85 12.396 103.27 12.396C104.621 12.396 105.638 12.6117 106.296 13.0374C106.973 13.4895 107.457 14.1631 107.66 14.9338L105.184 15.3763C105.096 15.0297 104.883 14.7252 104.582 14.5184C104.2 14.2984 103.759 14.1945 103.316 14.2201C102.804 14.1832 102.291 14.28 101.831 14.5003C101.74 14.5541 101.664 14.6297 101.612 14.7199C101.559 14.81 101.532 14.9117 101.532 15.0151C101.534 15.1066 101.558 15.1964 101.604 15.2766C101.649 15.3568 101.715 15.4251 101.794 15.4755C102.029 15.6433 102.853 15.8831 104.246 16.1888C105.638 16.4946 106.623 16.8745 107.175 17.3176C107.45 17.5522 107.667 17.8438 107.809 18.1706C107.951 18.4975 108.015 18.8511 107.997 19.2053C107.995 19.6416 107.891 20.0718 107.694 20.4642C107.497 20.8567 107.211 21.2011 106.857 21.4722C106.444 21.8044 105.963 22.0469 105.444 22.1832C104.806 22.3503 104.147 22.4301 103.486 22.4203ZM92.2115 22.4203C91.3292 22.4664 90.4631 22.1783 89.7969 21.6172C89.5094 21.3582 89.282 21.0431 89.1298 20.6928C88.9776 20.3425 88.9041 19.965 88.9141 19.5852C88.906 19.0754 89.0451 18.5734 89.3158 18.1358C89.5846 17.7116 89.9758 17.3726 90.4413 17.1607C91.1093 16.881 91.8106 16.6823 92.529 16.569C93.3969 16.4371 94.2504 16.2286 95.0789 15.946V15.693C95.0982 15.5033 95.0748 15.3119 95.0102 15.1318C94.9457 14.9518 94.8415 14.7874 94.705 14.65C94.4573 14.4434 93.9827 14.3385 93.2947 14.3385C92.9108 14.3176 92.5296 14.4105 92.2019 14.6048C91.896 14.8458 91.6742 15.1718 91.5665 15.5387L89.1846 15.123C89.3818 14.3014 89.871 13.5728 90.5669 13.0642C91.2178 12.6208 92.1984 12.3957 93.4813 12.3957C94.6464 12.3957 95.5264 12.531 96.0969 12.7976C96.6006 13.0071 97.0237 13.3641 97.3065 13.8182C97.539 14.2289 97.6568 14.9931 97.6568 16.0897L97.6287 19.0517C97.6119 19.6756 97.6536 20.2998 97.7534 20.9164C97.8543 21.3629 98.0127 21.7953 98.2248 22.2037H95.6314C95.5625 22.0338 95.4778 21.7819 95.3793 21.4539C95.3363 21.3054 95.3048 21.205 95.2858 21.1559C94.8708 21.5548 94.3832 21.8762 93.8474 22.104C93.33 22.3156 92.7734 22.4233 92.2115 22.4203ZM95.0783 17.5978C94.7449 17.7053 94.2058 17.8361 93.481 17.9861C92.9836 18.0608 92.5014 18.2101 92.0517 18.4287C91.8951 18.5239 91.766 18.6557 91.6761 18.812C91.5863 18.9683 91.5388 19.144 91.5378 19.3228C91.5369 19.4955 91.5729 19.6664 91.6436 19.825C91.7144 19.9835 91.8183 20.1262 91.9488 20.244C92.0876 20.373 92.2517 20.4738 92.4314 20.5405C92.6111 20.6072 92.8028 20.6384 92.9952 20.6323C93.4852 20.6262 93.9601 20.4678 94.3497 20.1805C94.6491 19.9756 94.8693 19.6802 94.9758 19.3409C95.0625 18.9341 95.0969 18.5185 95.0783 18.1036V17.5978ZM58.8831 22.4203C58.0008 22.4664 57.1346 22.1783 56.4685 21.6172C56.181 21.3582 55.9536 21.0431 55.8015 20.6928C55.6493 20.3425 55.5759 19.965 55.586 19.5852C55.5777 19.0753 55.7168 18.5734 55.9877 18.1358C56.2559 17.7108 56.6471 17.371 57.1129 17.1586C57.7809 16.8789 58.4821 16.6801 59.2006 16.5669C60.0686 16.435 60.9222 16.2265 61.7508 15.9439V15.6909C61.77 15.5012 61.7466 15.3098 61.682 15.1298C61.6175 14.9497 61.5134 14.7853 61.3768 14.6479C61.1276 14.4412 60.6542 14.3364 59.9662 14.3364C59.5824 14.3155 59.2011 14.4084 58.8734 14.6027C58.5677 14.8437 58.3461 15.1697 58.2384 15.5366L55.8565 15.1209C56.0538 14.2993 56.5431 13.5707 57.2391 13.0621C57.8897 12.6186 58.87 12.3936 60.1532 12.3936C61.3183 12.3936 62.1982 12.5289 62.7688 12.7955C63.2724 13.0051 63.6954 13.3621 63.9784 13.8161C64.2109 14.2267 64.3287 14.991 64.3287 16.0876L64.3003 19.0496C64.2835 19.6735 64.3253 20.2976 64.4249 20.9143C64.5259 21.3608 64.6844 21.7932 64.8967 22.2016H62.2998C62.2309 22.0326 62.1484 21.7874 62.0474 21.4518C62.0035 21.2996 61.9729 21.202 61.9539 21.1538C61.5388 21.5527 61.0511 21.8741 60.5153 22.1019C59.9991 22.3138 59.4438 22.4221 58.8831 22.4203ZM61.7498 17.5978C61.4164 17.7053 60.8792 17.8358 60.1522 17.9861C59.655 18.0608 59.1728 18.2101 58.7232 18.4287C58.5667 18.5239 58.4375 18.6557 58.3477 18.812C58.2579 18.9683 58.2103 19.144 58.2094 19.3228C58.2084 19.4955 58.2444 19.6665 58.3151 19.825C58.3858 19.9836 58.4898 20.1263 58.6204 20.244C58.7591 20.373 58.9232 20.4739 59.1029 20.5406C59.2826 20.6073 59.4744 20.6385 59.6668 20.6323C60.1567 20.6262 60.6317 20.4678 61.0213 20.1805C61.3206 19.9756 61.5408 19.6802 61.647 19.3409C61.734 18.9341 61.7685 18.5185 61.7498 18.1036V17.5978ZM34.2328 22.4203C32.8879 22.4203 31.8085 22.1528 31.0233 21.6256C30.2511 21.1144 29.7009 20.3459 29.478 19.4671L32.112 19.0788C32.1929 19.5204 32.4349 19.9193 32.7941 20.2031C33.2166 20.4812 33.7225 20.6163 34.2328 20.5872C34.7697 20.6222 35.3048 20.496 35.7646 20.2257C35.8748 20.1484 35.9638 20.0464 36.0241 19.9284C36.0843 19.8104 36.1138 19.68 36.1102 19.5484C36.1158 19.3712 36.0486 19.1991 35.9232 19.0697C35.6604 18.8956 35.3602 18.7813 35.0451 18.7356C32.9368 18.2865 31.5832 17.8701 31.0192 17.4984C30.6506 17.2639 30.3474 16.9452 30.1364 16.5705C29.9357 16.1898 29.8347 15.7672 29.8423 15.3399C29.8386 14.9392 29.9282 14.5429 30.1044 14.1803C30.2806 13.8177 30.539 13.498 30.8603 13.245C31.5362 12.6816 32.5984 12.396 34.0175 12.396C35.3689 12.396 36.3856 12.6117 37.0441 13.0374C37.7206 13.4895 38.205 14.1632 38.4076 14.9338L35.9323 15.3763C35.8445 15.0297 35.6306 14.7251 35.3296 14.5184C34.9483 14.2984 34.5074 14.1945 34.0642 14.2201C33.5521 14.1831 33.0392 14.2799 32.5791 14.5003C32.4877 14.5541 32.4122 14.6297 32.3598 14.7199C32.3074 14.81 32.2799 14.9117 32.28 15.0151C32.2816 15.1066 32.3063 15.1963 32.3518 15.2765C32.3974 15.3567 32.4624 15.425 32.5414 15.4755C32.777 15.6433 33.6008 15.8834 34.9937 16.1888C36.3866 16.4943 37.3703 16.8742 37.9228 17.3176C38.1979 17.5522 38.4147 17.8438 38.557 18.1706C38.6993 18.4975 38.7635 18.8511 38.7448 19.2053C38.7428 19.6416 38.6393 20.0718 38.4421 20.4642C38.2448 20.8567 37.9588 21.2011 37.6053 21.4722C37.1925 21.8044 36.7107 22.0469 36.1925 22.1832C35.5539 22.3505 34.8943 22.4303 34.2328 22.4203ZM81.6092 22.204H78.9843V16.9477C79.0151 16.3419 78.9681 15.7348 78.8444 15.1402C78.7713 14.8982 78.6187 14.6858 78.4097 14.5352C78.1707 14.3918 77.892 14.3226 77.611 14.3367C77.2221 14.3326 76.841 14.4428 76.5183 14.6527C76.1876 14.8732 75.9426 15.1943 75.8224 15.5649C75.6529 16.2107 75.5821 16.877 75.6124 17.5427V22.2037H72.9875V12.6129H75.4083V13.9225C75.796 13.4505 76.2801 13.0608 76.8305 12.7777C77.3476 12.5235 77.9202 12.3926 78.5004 12.396C79.0761 12.3828 79.6455 12.5135 80.1537 12.7753C80.6391 13.0475 81.0369 13.4446 81.3026 13.9225C81.688 13.4521 82.1677 13.0619 82.7129 12.7753C83.2119 12.5244 83.7664 12.3943 84.3289 12.396C84.974 12.3769 85.6126 12.525 86.1786 12.825C86.6859 13.1163 87.082 13.5586 87.3075 14.0858C87.5232 14.7269 87.615 15.4008 87.5783 16.074V22.2034H84.9534V16.7217C84.9534 15.7746 84.8624 15.1552 84.6826 14.8796C84.5617 14.7015 84.3943 14.5576 84.1972 14.4623C84.0002 14.3671 83.7806 14.324 83.5608 14.3373C83.1886 14.3392 82.8263 14.4528 82.5238 14.6624C82.1878 14.8963 81.9415 15.2313 81.8233 15.6149C81.6525 16.2621 81.5801 16.9299 81.6083 17.5972V22.2037L81.6092 22.204ZM47.786 22.204H45.1613V12.6129H47.5993V14.0219C47.9895 13.5161 48.4903 13.0998 49.066 12.8027C49.6246 12.5293 50.243 12.39 50.869 12.3963C51.4145 12.3898 51.9556 12.4923 52.4581 12.6976C52.8832 12.8606 53.2579 13.1265 53.5463 13.4697C53.7931 13.7867 53.9677 14.1507 54.0585 14.5376C54.1702 15.0998 54.2188 15.672 54.2034 16.2443V22.2034H51.5788V17.3092C51.6151 16.6352 51.5585 15.9594 51.4105 15.2998C51.3113 15.0132 51.1197 14.7648 50.864 14.591C50.5946 14.418 50.2764 14.3297 49.9532 14.3382C49.5164 14.3337 49.089 14.46 48.7295 14.6997C48.3782 14.9291 48.1168 15.2659 47.9873 15.6562C47.8193 16.3788 47.7518 17.1198 47.7866 17.8596V22.2037L47.786 22.204ZM68.8404 22.204H66.216V12.6129H68.654V13.9767C68.9351 13.4823 69.3182 13.0488 69.7795 12.7033C70.1193 12.4974 70.5134 12.3908 70.9144 12.3963C71.5248 12.4005 72.1224 12.566 72.6425 12.875L71.8296 15.0874C71.4685 14.8373 71.0405 14.6931 70.5969 14.672C70.2596 14.6628 69.9294 14.7664 69.6621 14.9654C69.3534 15.251 69.1431 15.6214 69.0594 16.0265C68.9139 16.5365 68.8413 17.6183 68.8413 19.2415V22.2034L68.8404 22.204ZM43.0786 22.204H40.4533V12.6129H43.0783L43.0786 22.204ZM43.0786 11.3127H40.4533V8.96442H43.0783V11.3121L43.0786 11.3127Z" fill="#414145"/>
</svg>
