<svg width="134" height="32" viewBox="0 0 134 32" fill="none" xmlns="http://www.w3.org/2000/svg">
<path d="M3.36828 0.25H28.6317C29.4587 0.25 30.2519 0.578532 30.8367 1.16332C31.4215 1.74811 31.75 2.54126 31.75 3.36828V28.6317C31.75 29.4587 31.4215 30.2519 30.8367 30.8367C30.2519 31.4215 29.4587 31.75 28.6317 31.75H3.36828C2.54126 31.75 1.74811 31.4215 1.16332 30.8367C0.578532 30.2519 0.25 29.4587 0.25 28.6317V3.36828C0.25 2.54126 0.578532 1.74811 1.16332 1.16332C1.74811 0.578532 2.54126 0.25 3.36828 0.25Z" fill="#E30717" stroke="white" stroke-width="0.5"/>
<path d="M2.526 16.2726H3.07703C3.16354 19.1424 4.36439 21.8658 6.42497 23.8652C8.48556 25.8646 11.2439 26.9829 14.115 26.9829C16.9862 26.9829 19.7445 25.8646 21.8051 23.8652C23.8657 21.8658 25.0665 19.1424 25.1531 16.2726H29.4719C29.3898 19.7914 27.9343 23.1385 25.4166 25.5982C22.8989 28.0579 19.5187 29.4349 15.9989 29.4349C12.4791 29.4349 9.099 28.0579 6.58128 25.5982C4.06356 23.1385 2.60806 19.7914 2.526 16.2726H2.526ZM3.60185 16.2726H4.12126C4.14208 18.4054 5.00396 20.4438 6.51952 21.9447C8.03509 23.4455 10.0818 24.2875 12.2148 24.2875C14.3477 24.2875 16.3945 23.4455 17.91 21.9447C19.4256 20.4438 20.2875 18.4054 20.3083 16.2726H24.5974C24.518 19.004 23.3771 21.5969 21.4171 23.5008C19.457 25.4048 16.832 26.4698 14.0994 26.4698C11.3669 26.4698 8.74188 25.4048 6.78179 23.5008C4.82171 21.5969 3.68086 19.004 3.60146 16.2726H3.60185ZM4.65532 16.2726H5.21291C5.21291 16.3343 5.20944 16.3971 5.20944 16.46C5.20944 17.8917 5.77821 19.2649 6.79063 20.2773C7.80304 21.2897 9.17617 21.8585 10.6079 21.8585C12.0397 21.8585 13.4128 21.2897 14.4253 20.2773C15.4377 19.2649 16.0064 17.8917 16.0064 16.46C16.0064 16.3975 16.0064 16.3346 16.0037 16.2726H19.7626C19.7626 18.2758 18.9669 20.197 17.5503 21.6135C16.1338 23.03 14.2126 23.8258 12.2094 23.8258C10.2061 23.8258 8.28491 23.03 6.8684 21.6135C5.45188 20.197 4.6561 18.2758 4.6561 16.2726H4.65532ZM28.9224 15.7273C28.8342 12.8586 27.6327 10.1369 25.5723 8.1388C23.512 6.14074 20.7546 5.02333 17.8845 5.02333C15.0145 5.02333 12.2571 6.14074 10.1968 8.1388C8.13638 10.1369 6.93485 12.8586 6.84673 15.7273H2.526C2.59904 12.2022 4.05068 8.84611 6.56953 6.37891C9.08839 3.91171 12.4738 2.52991 15.9997 2.52991C19.5256 2.52991 22.911 3.91171 25.4299 6.37891C27.9487 8.84611 29.4004 12.2022 29.4734 15.7273H28.9224ZM27.8785 15.7273C27.8577 13.5945 26.9958 11.5561 25.4803 10.0552C23.9647 8.55436 21.918 7.71242 19.785 7.71242C17.6521 7.71242 15.6053 8.55436 14.0898 10.0552C12.5742 11.5561 11.7123 13.5945 11.6915 15.7273H7.40162C7.48102 12.9959 8.62187 10.403 10.582 8.49904C12.542 6.5951 15.167 5.53008 17.8996 5.53008C20.6322 5.53008 23.2571 6.5951 25.2172 8.49904C27.1773 10.403 28.3182 12.9959 28.3976 15.7273H27.8785ZM26.7865 15.7273C26.7888 15.6656 26.7896 15.6031 26.7896 15.5403C26.7896 14.1085 26.2208 12.7354 25.2084 11.723C24.196 10.7106 22.8228 10.1418 21.3911 10.1418C19.9593 10.1418 18.5862 10.7106 17.5737 11.723C16.5613 12.7354 15.9926 14.1085 15.9926 15.5403C15.9926 15.6031 15.9926 15.6656 15.9956 15.7273H12.2379C12.2379 13.7241 13.0337 11.8029 14.4502 10.3863C15.8667 8.96983 17.7879 8.17404 19.7912 8.17404C21.7944 8.17404 23.7156 8.96983 25.1322 10.3863C26.5487 11.8029 27.3445 13.7241 27.3445 15.7273H26.7865Z" fill="white"/>
<path d="M45.5309 9.82246C44.9427 9.85435 44.3654 9.65571 43.9213 9.26872C43.7298 9.09016 43.5784 8.87299 43.477 8.63157C43.3757 8.39014 43.3267 8.12996 43.3333 7.8682C43.3279 7.51689 43.4206 7.17103 43.6009 6.86948C43.7799 6.57693 44.0406 6.34316 44.3509 6.19698C44.7961 6.00437 45.2634 5.86747 45.7422 5.78939C46.3204 5.69843 46.8892 5.55464 47.4412 5.35982V5.18553C47.4541 5.05487 47.4385 4.92296 47.3956 4.79888C47.3527 4.6748 47.2834 4.56149 47.1925 4.46676C46.9116 4.29294 46.5813 4.21676 46.2527 4.25005C45.997 4.23556 45.743 4.29961 45.5247 4.4336C45.3203 4.59956 45.1722 4.8246 45.1005 5.07795L43.5134 4.79144C43.6448 4.22516 43.9708 3.72297 44.4346 3.37241C45.0209 3.02708 45.6976 2.86649 46.3765 2.9116C46.9704 2.87956 47.5643 2.97393 48.1191 3.18847C48.4547 3.33276 48.7366 3.57878 48.925 3.89182C49.1171 4.39011 49.1968 4.92471 49.1583 5.45738L49.1398 7.49879C49.1289 7.92886 49.157 8.35903 49.2238 8.78402C49.2909 9.09167 49.3965 9.38964 49.5381 9.67091H47.809C47.7632 9.55523 47.7084 9.38595 47.6409 9.1542C47.6112 9.04893 47.5908 8.98183 47.5784 8.94906C47.3023 9.22476 46.9776 9.44701 46.6206 9.60459C46.2759 9.75042 45.9051 9.82455 45.5309 9.82246ZM47.4416 6.49891C47.2164 6.57372 46.8585 6.66356 46.3773 6.76652C46.0459 6.81819 45.7246 6.92109 45.4248 7.07154C45.3204 7.13723 45.2343 7.22823 45.1745 7.33608C45.1146 7.44394 45.0829 7.56516 45.0824 7.68851C45.0817 7.80747 45.1057 7.92529 45.1528 8.03453C45.2 8.14376 45.2692 8.24206 45.3562 8.32322C45.4487 8.41216 45.5581 8.48166 45.6779 8.52762C45.7977 8.57359 45.9255 8.59508 46.0538 8.59083C46.3801 8.58656 46.6965 8.47746 46.9561 8.27964C47.1556 8.13858 47.3024 7.93506 47.3733 7.70123C47.431 7.42093 47.4539 7.13457 47.4416 6.84865V6.49891ZM40.1702 9.82246C39.7801 9.81926 39.3965 9.72218 39.0519 9.53942C38.6733 9.34 38.3478 9.05298 38.1025 8.70227V9.67323H36.4791V0.548218H38.2282V3.83436C38.4597 3.54855 38.7517 3.31766 39.0831 3.15836C39.4146 2.99905 39.7773 2.9153 40.1451 2.91315C40.5217 2.90471 40.8956 2.97856 41.2407 3.12954C41.5859 3.28053 41.8939 3.50501 42.1433 3.78732C42.7112 4.49637 42.9932 5.39228 42.9338 6.29878C42.9338 7.42205 42.6639 8.29969 42.1279 8.90703C41.8896 9.19493 41.5904 9.42637 41.2519 9.58467C40.9133 9.74298 40.5439 9.82419 40.1702 9.82246ZM39.6797 4.25005C39.4798 4.24724 39.2818 4.28973 39.1007 4.37435C38.9196 4.45896 38.76 4.5835 38.6339 4.73861C38.3234 5.16912 38.1748 5.69541 38.2144 6.22474C38.1782 6.75133 38.2902 7.27752 38.5379 7.74365C38.6598 7.95607 38.8357 8.13245 39.0478 8.25489C39.26 8.37734 39.5007 8.44149 39.7456 8.44083C39.9371 8.43995 40.1258 8.39484 40.2969 8.30902C40.4681 8.22321 40.6171 8.099 40.7324 7.94609C41.0405 7.48726 41.1842 6.93761 41.14 6.3867C41.1895 5.81118 41.0453 5.23561 40.7304 4.75134C40.6061 4.59214 40.4464 4.464 40.2641 4.37701C40.0817 4.29002 39.8817 4.24656 39.6797 4.25005ZM59.2654 9.67168H57.5152V0.548218H59.2643V5.39067L61.3122 3.06276H63.4658L61.2062 5.47782L63.6259 9.67246H61.7418L60.0798 6.70328L59.2643 7.55624V9.67207L59.2654 9.67168ZM52.075 9.67168H50.3247V3.06276H51.9493V4.03411C52.307 3.53951 52.8214 3.1803 53.409 3.01476C53.9965 2.84922 54.6228 2.88706 55.1861 3.12215C55.4693 3.23451 55.719 3.41774 55.911 3.65428C56.0757 3.87225 56.1924 4.12259 56.2535 4.38887C56.3278 4.77642 56.3602 5.17086 56.3499 5.56535V9.67246H54.6027V6.29955C54.6269 5.83506 54.5893 5.36941 54.4908 4.91483C54.4245 4.71732 54.2969 4.54615 54.1264 4.42627C53.9467 4.30601 53.7341 4.24444 53.518 4.25005C53.2269 4.24676 52.942 4.33364 52.7024 4.49876C52.4681 4.65702 52.2938 4.88936 52.2073 5.15854C52.0953 5.6565 52.0503 6.16719 52.0735 6.67706V9.67091L52.075 9.67168Z" fill="#F5F5F5"/>
<path d="M128.063 28.6978C126.399 28.6978 125.063 28.3554 124.092 27.6805C123.136 27.0263 122.454 26.0427 122.178 24.9177L125.438 24.4206C125.538 24.9859 125.837 25.4965 126.282 25.8597C126.805 26.2157 127.431 26.3886 128.062 26.3514C128.727 26.3963 129.389 26.2347 129.958 25.8886C130.094 25.7898 130.204 25.6591 130.279 25.5081C130.353 25.3571 130.39 25.1901 130.386 25.0218C130.393 24.795 130.309 24.5746 130.154 24.4091C129.829 24.1861 129.457 24.0398 129.068 23.9814C126.46 23.4061 124.783 22.8736 124.085 22.3977C123.624 22.1027 123.247 21.693 122.992 21.2087C122.737 20.7244 122.612 20.1821 122.629 19.6348C122.624 19.122 122.735 18.6147 122.953 18.1505C123.171 17.6863 123.491 17.2772 123.889 16.9533C124.725 16.2323 126.039 15.8667 127.796 15.8667C129.468 15.8667 130.726 16.1428 131.541 16.6877C132.378 17.2663 132.978 18.1286 133.228 19.1151L130.165 19.6815C130.056 19.2378 129.792 18.848 129.42 18.5833C128.948 18.3017 128.402 18.1687 127.853 18.2015C127.22 18.1543 126.585 18.2782 126.015 18.5602C125.902 18.629 125.809 18.7258 125.744 18.8412C125.679 18.9566 125.645 19.0868 125.645 19.2192C125.647 19.3363 125.678 19.4512 125.734 19.5538C125.791 19.6565 125.871 19.7439 125.969 19.8084C126.26 20.0232 127.28 20.3301 129.004 20.7215C130.727 21.1129 131.945 21.5991 132.628 22.1664C132.969 22.4666 133.237 22.8398 133.413 23.2582C133.589 23.6765 133.669 24.1292 133.645 24.5826C133.643 25.141 133.515 25.6918 133.271 26.194C133.027 26.6963 132.673 27.1373 132.235 27.4843C131.724 27.9094 131.128 28.2198 130.487 28.3943C129.697 28.6082 128.881 28.7104 128.063 28.6978ZM114.111 28.6978C113.02 28.7568 111.948 28.388 111.123 27.6697C110.767 27.3383 110.486 26.935 110.298 26.4866C110.109 26.0382 110.018 25.555 110.031 25.0688C110.021 24.4163 110.193 23.7738 110.528 23.2137C110.861 22.6707 111.345 22.2368 111.921 21.9655C112.747 21.6075 113.615 21.3532 114.504 21.2081C115.578 21.0393 116.635 20.7724 117.66 20.4107V20.0868C117.684 19.844 117.655 19.599 117.575 19.3686C117.495 19.1381 117.366 18.9277 117.197 18.7518C116.89 18.4873 116.303 18.3531 115.452 18.3531C114.977 18.3263 114.505 18.4452 114.099 18.694C113.721 19.0024 113.446 19.4197 113.313 19.8893L110.366 19.3572C110.61 18.3056 111.215 17.373 112.076 16.722C112.882 16.1544 114.095 15.8663 115.683 15.8663C117.125 15.8663 118.213 16.0394 118.92 16.3807C119.543 16.6489 120.066 17.1058 120.416 17.6871C120.704 18.2127 120.85 19.191 120.85 20.5946L120.815 24.3859C120.794 25.1846 120.846 25.9835 120.969 26.7728C121.094 27.3443 121.29 27.8978 121.553 28.4205H118.343C118.258 28.203 118.153 27.8807 118.031 27.4607C117.978 27.2706 117.939 27.1422 117.916 27.0794C117.402 27.59 116.799 28.0014 116.136 28.2929C115.495 28.5638 114.807 28.7016 114.111 28.6978ZM117.659 22.525C117.246 22.6626 116.579 22.83 115.682 23.022C115.067 23.1176 114.47 23.3087 113.914 23.5885C113.72 23.7103 113.56 23.8791 113.449 24.0792C113.338 24.2792 113.279 24.5041 113.278 24.733C113.276 24.954 113.321 25.1728 113.409 25.3758C113.496 25.5787 113.625 25.7613 113.786 25.9121C113.958 26.0772 114.161 26.2062 114.383 26.2916C114.606 26.377 114.843 26.417 115.081 26.4092C115.688 26.4013 116.275 26.1985 116.757 25.8308C117.128 25.5685 117.4 25.1904 117.532 24.7561C117.639 24.2354 117.682 23.7035 117.659 23.1724V22.525ZM72.8676 28.6978C71.7758 28.7568 70.7039 28.388 69.8795 27.6697C69.5237 27.3382 69.2424 26.935 69.0541 26.4866C68.8659 26.0382 68.775 25.555 68.7875 25.0688C68.7772 24.4162 68.9494 23.7737 69.2845 23.2137C69.6164 22.6696 70.1005 22.2347 70.677 21.9628C71.5036 21.6047 72.3714 21.3504 73.2605 21.2054C74.3346 21.0366 75.391 20.7697 76.4163 20.408V20.0841C76.4402 19.8413 76.4112 19.5963 76.3313 19.3659C76.2514 19.1354 76.1226 18.925 75.9536 18.7491C75.6451 18.4846 75.0594 18.3504 74.208 18.3504C73.733 18.3237 73.2612 18.4426 72.8556 18.6913C72.4774 18.9998 72.203 19.4171 72.0698 19.8867L69.1222 19.3545C69.3664 18.3029 69.9719 17.3703 70.8331 16.7193C71.6383 16.1517 72.8514 15.8636 74.4393 15.8636C75.8811 15.8636 76.9701 16.0367 77.6761 16.378C78.2994 16.6463 78.8229 17.1032 79.173 17.6844C79.4607 18.21 79.6065 19.1883 79.6065 20.5919L79.5714 24.3832C79.5506 25.1819 79.6023 25.9808 79.7256 26.7701C79.8506 27.3416 80.0467 27.8951 80.3094 28.4178H77.0958C77.0106 28.2015 76.9084 27.8876 76.7834 27.458C76.7291 27.2633 76.6913 27.1384 76.6678 27.0767C76.154 27.5873 75.5505 27.9987 74.8874 28.2902C74.2487 28.5614 73.5615 28.7001 72.8676 28.6978ZM76.4152 22.525C76.0026 22.6626 75.3378 22.8296 74.4382 23.022C73.8228 23.1176 73.2262 23.3087 72.6698 23.5885C72.4761 23.7103 72.3162 23.8791 72.2051 24.0792C72.0939 24.2792 72.035 24.5041 72.0339 24.733C72.0326 24.954 72.0772 25.1729 72.1647 25.3758C72.2523 25.5788 72.3809 25.7614 72.5425 25.9121C72.7142 26.0773 72.9173 26.2063 73.1397 26.2917C73.3621 26.3771 73.5993 26.417 73.8374 26.4092C74.4438 26.4013 75.0315 26.1985 75.5136 25.8308C75.884 25.5686 76.1565 25.1904 76.2879 24.7561C76.3956 24.2355 76.4383 23.7035 76.4152 23.1724V22.525ZM42.363 28.6978C40.6987 28.6978 39.363 28.3554 38.3912 27.6805C37.4356 27.0262 36.7548 26.0425 36.479 24.9177L39.7385 24.4206C39.8386 24.9859 40.1381 25.4965 40.5826 25.8597C41.1055 26.2157 41.7315 26.3886 42.363 26.3514C43.0275 26.3963 43.6896 26.2346 44.2586 25.8886C44.395 25.7898 44.5052 25.6591 44.5797 25.5081C44.6542 25.3571 44.6908 25.1901 44.6863 25.0218C44.6932 24.795 44.61 24.5747 44.4549 24.4091C44.1297 24.1861 43.7582 24.0399 43.3683 23.9814C40.7592 23.4065 39.0842 22.8736 38.3862 22.3977C37.93 22.0976 37.5548 21.6897 37.2938 21.2101C37.0454 20.7227 36.9204 20.1818 36.9298 19.6348C36.9252 19.122 37.0361 18.6147 37.2541 18.1506C37.4722 17.6864 37.7919 17.2772 38.1896 16.9533C39.0259 16.2323 40.3405 15.8667 42.0965 15.8667C43.7689 15.8667 45.0271 16.1428 45.8419 16.6877C46.6792 17.2664 47.2786 18.1286 47.5293 19.1151L44.4661 19.6815C44.3574 19.2378 44.0927 18.8479 43.7203 18.5833C43.2485 18.3018 42.7028 18.1688 42.1544 18.2015C41.5207 18.1542 40.8859 18.278 40.3166 18.5602C40.2035 18.629 40.11 18.7258 40.0452 18.8412C39.9804 18.9566 39.9463 19.0868 39.9464 19.2192C39.9484 19.3363 39.979 19.4511 40.0353 19.5537C40.0917 19.6564 40.1722 19.7438 40.2699 19.8084C40.5614 20.0232 41.581 20.3305 43.3046 20.7215C45.0283 21.1125 46.2457 21.5987 46.9293 22.1664C47.2698 22.4666 47.5381 22.8398 47.7142 23.2582C47.8903 23.6765 47.9698 24.1292 47.9466 24.5826C47.9441 25.141 47.8161 25.6918 47.572 26.194C47.3279 26.6963 46.974 27.1373 46.5364 27.4843C46.0256 27.9094 45.4293 28.2198 44.7881 28.3943C43.9979 28.6084 43.1816 28.7105 42.363 28.6978ZM100.991 28.4209H97.7427V21.6928C97.7808 20.9174 97.7227 20.1403 97.5696 19.3792C97.4792 19.0695 97.2904 18.7977 97.0317 18.6049C96.7359 18.4214 96.391 18.3327 96.0434 18.3508C95.562 18.3455 95.0904 18.4866 94.691 18.7553C94.2818 19.0375 93.9787 19.4485 93.83 19.9229C93.6201 20.7495 93.5326 21.6024 93.5701 22.4544V28.4205H90.3217V16.1443H93.3175V17.8206C93.7973 17.2164 94.3964 16.7176 95.0774 16.3553C95.7174 16.0298 96.4259 15.8623 97.1439 15.8667C97.8563 15.8498 98.561 16.017 99.1899 16.3522C99.7906 16.7006 100.283 17.2089 100.612 17.8206C101.089 17.2185 101.682 16.7191 102.357 16.3522C102.974 16.031 103.661 15.8645 104.357 15.8667C105.155 15.8423 105.945 16.0318 106.646 16.4158C107.273 16.7886 107.764 17.3548 108.043 18.0296C108.31 18.8502 108.423 19.7129 108.378 20.5746V28.4201H105.129V21.4036C105.129 20.1913 105.017 19.3985 104.794 19.0456C104.645 18.8178 104.438 18.6335 104.194 18.5116C103.95 18.3897 103.678 18.3345 103.406 18.3515C102.946 18.3539 102.497 18.4993 102.123 18.7676C101.707 19.067 101.402 19.4958 101.256 19.9869C101.045 20.8153 100.955 21.67 100.99 22.5242V28.4205L100.991 28.4209ZM59.135 28.4209H55.887V16.1443H58.904V17.9478C59.3868 17.3004 60.0066 16.7676 60.719 16.3873C61.4102 16.0374 62.1755 15.8589 62.9502 15.8671C63.6253 15.8587 64.2948 15.99 64.9168 16.2527C65.4428 16.4614 65.9065 16.8017 66.2633 17.241C66.5687 17.6468 66.7848 18.1127 66.8972 18.608C67.0354 19.3276 67.0955 20.06 67.0765 20.7924V28.4201H63.8286V22.1556C63.8735 21.2928 63.8035 20.4279 63.6204 19.5836C63.4975 19.2167 63.2605 18.8987 62.944 18.6762C62.6106 18.4548 62.2169 18.3418 61.8169 18.3527C61.2764 18.3469 60.7475 18.5085 60.3026 18.8154C59.8678 19.109 59.5443 19.5402 59.3841 20.0397C59.1762 20.9646 59.0927 21.9131 59.1357 22.8601V28.4205L59.135 28.4209ZM85.1897 28.4209H81.9421V16.1443H84.9591V17.89C85.3069 17.2571 85.781 16.7023 86.3519 16.26C86.7724 15.9964 87.2601 15.86 87.7563 15.8671C88.5117 15.8724 89.2512 16.0843 89.8949 16.4798L88.8888 19.3117C88.442 18.9916 87.9124 18.807 87.3633 18.78C86.946 18.7682 86.5374 18.9008 86.2065 19.1555C85.8246 19.5211 85.5643 19.9952 85.4608 20.5136C85.2807 21.1665 85.1908 22.5512 85.1908 24.6288V28.4201L85.1897 28.4209ZM53.3096 28.4209H50.0609V16.1443H53.3092L53.3096 28.4209ZM53.3096 14.4801H50.0609V11.4742H53.3092V14.4793L53.3096 14.4801Z" fill="#F5F5F5"/>
</svg>
