<svg width="73" height="72" viewBox="0 0 73 72" fill="none" xmlns="http://www.w3.org/2000/svg">
<path d="M47.9 6.62998C46.67 5.39998 44.54 6.23998 44.54 7.94998V18.42C44.54 22.8 48.26 26.43 52.79 26.43C55.64 26.46 59.6 26.46 62.99 26.46C64.7 26.46 65.6 24.45 64.4 23.25C60.08 18.9 52.34 11.07 47.9 6.62998Z" fill="#FDFDFD"/>
<path d="M62 30.57H53.33C46.22 30.57 40.43 24.78 40.43 17.67V9C40.43 7.35 39.08 6 37.43 6H24.71C15.47 6 8 12 8 22.71V49.29C8 60 15.47 66 24.71 66H48.29C57.53 66 65 60 65 49.29V33.57C65 31.92 63.65 30.57 62 30.57ZM35 53.25H23C21.77 53.25 20.75 52.23 20.75 51C20.75 49.77 21.77 48.75 23 48.75H35C36.23 48.75 37.25 49.77 37.25 51C37.25 52.23 36.23 53.25 35 53.25ZM41 41.25H23C21.77 41.25 20.75 40.23 20.75 39C20.75 37.77 21.77 36.75 23 36.75H41C42.23 36.75 43.25 37.77 43.25 39C43.25 40.23 42.23 41.25 41 41.25Z" fill="#FDFDFD"/>
</svg>
