<svg width="20" height="20" viewBox="0 0 20 20" fill="none" xmlns="http://www.w3.org/2000/svg">
<path d="M14.5336 12.8083C14.3752 12.8083 14.2169 12.75 14.0919 12.625C13.8502 12.3833 13.8502 11.9833 14.0919 11.7416L15.7836 10.05L14.0919 8.35828C13.8502 8.11662 13.8502 7.71662 14.0919 7.47495C14.3336 7.23328 14.7336 7.23328 14.9752 7.47495L17.1086 9.60828C17.3502 9.84995 17.3502 10.25 17.1086 10.4916L14.9752 12.625C14.8502 12.75 14.6919 12.8083 14.5336 12.8083Z" fill="#FDFDFD"/>
<path d="M16.6083 10.675H8.1333C7.79163 10.675 7.5083 10.3917 7.5083 10.05C7.5083 9.70838 7.79163 9.42505 8.1333 9.42505H16.6083C16.95 9.42505 17.2333 9.70838 17.2333 10.05C17.2333 10.3917 16.95 10.675 16.6083 10.675Z" fill="#FDFDFD"/>
<path d="M9.79997 17.2917C5.5083 17.2917 2.5083 14.2917 2.5083 10C2.5083 5.70837 5.5083 2.70837 9.79997 2.70837C10.1416 2.70837 10.425 2.99171 10.425 3.33337C10.425 3.67504 10.1416 3.95837 9.79997 3.95837C6.24163 3.95837 3.7583 6.44171 3.7583 10C3.7583 13.5584 6.24163 16.0417 9.79997 16.0417C10.1416 16.0417 10.425 16.325 10.425 16.6667C10.425 17.0084 10.1416 17.2917 9.79997 17.2917Z" fill="#FDFDFD"/>
</svg>
