<svg width="20" height="20" viewBox="0 0 20 20" fill="none" xmlns="http://www.w3.org/2000/svg">
<path d="M14.5333 12.8083C14.375 12.8083 14.2167 12.75 14.0917 12.625C13.85 12.3833 13.85 11.9833 14.0917 11.7416L15.7833 10.05L14.0917 8.35828C13.85 8.11662 13.85 7.71662 14.0917 7.47495C14.3333 7.23328 14.7333 7.23328 14.975 7.47495L17.1083 9.60828C17.35 9.84995 17.35 10.25 17.1083 10.4916L14.975 12.625C14.85 12.75 14.6917 12.8083 14.5333 12.8083Z" fill="#303435"/>
<path d="M16.6083 10.675H8.1333C7.79163 10.675 7.5083 10.3917 7.5083 10.05C7.5083 9.70838 7.79163 9.42505 8.1333 9.42505H16.6083C16.95 9.42505 17.2333 9.70838 17.2333 10.05C17.2333 10.3917 16.95 10.675 16.6083 10.675Z" fill="#303435"/>
<path d="M9.79997 17.2916C5.5083 17.2916 2.5083 14.2916 2.5083 9.99992C2.5083 5.70825 5.5083 2.70825 9.79997 2.70825C10.1416 2.70825 10.425 2.99159 10.425 3.33325C10.425 3.67492 10.1416 3.95825 9.79997 3.95825C6.24163 3.95825 3.7583 6.44159 3.7583 9.99992C3.7583 13.5583 6.24163 16.0416 9.79997 16.0416C10.1416 16.0416 10.425 16.3249 10.425 16.6666C10.425 17.0083 10.1416 17.2916 9.79997 17.2916Z" fill="#303435"/>
</svg>
