<svg width="166" height="40" viewBox="0 0 166 40" fill="none" xmlns="http://www.w3.org/2000/svg">
<path d="M4.65839 0H35.8479C36.9508 0 38.0085 0.443589 38.7884 1.23318C39.5682 2.02278 40.0063 3.09369 40.0063 4.21035V35.7896C40.0063 36.9063 39.5682 37.9772 38.7884 38.7668C38.0085 39.5564 36.9508 40 35.8479 40H4.65839C3.55551 40 2.49781 39.5564 1.71796 38.7668C0.938114 37.9772 0.5 36.9063 0.5 35.7896L0.5 4.21035C0.5 3.09369 0.938114 2.02278 1.71796 1.23318C2.49781 0.443589 3.55551 0 4.65839 0V0Z" fill="#E30717"/>
<path d="M3.61914 20.3408H4.29943C4.40622 23.9281 5.88876 27.3323 8.43271 29.8316C10.9767 32.3309 14.382 33.7287 17.9267 33.7287C21.4713 33.7287 24.8767 32.3309 27.4206 29.8316C29.9646 27.3323 31.4471 23.9281 31.5539 20.3408H36.8858C36.7844 24.7393 34.9875 28.9232 31.8792 31.9978C28.7709 35.0724 24.5979 36.7938 20.2524 36.7938C15.907 36.7938 11.734 35.0724 8.62568 31.9978C5.51737 28.9232 3.72045 24.7393 3.61914 20.3408H3.61914ZM4.94735 20.3408H5.5886C5.61431 23.0068 6.67836 25.5549 8.54943 27.4309C10.4205 29.307 12.9473 30.3594 15.5806 30.3594C18.2139 30.3594 20.7408 29.307 22.6118 27.4309C24.4829 25.5549 25.547 23.0068 25.5727 20.3408H30.8679C30.7699 23.755 29.3614 26.9962 26.9415 29.3761C24.5217 31.756 21.2809 33.0873 17.9074 33.0873C14.5338 33.0873 11.2931 31.756 8.87323 29.3761C6.45336 26.9962 5.0449 23.755 4.94687 20.3408H4.94735ZM6.24795 20.3408H6.93633C6.93633 20.4179 6.93204 20.4965 6.93204 20.575C6.93204 22.3647 7.63423 24.0812 8.88413 25.3467C10.134 26.6122 11.8293 27.3232 13.5969 27.3232C15.3645 27.3232 17.0597 26.6122 18.3096 25.3467C19.5595 24.0812 20.2617 22.3647 20.2617 20.575C20.2617 20.4969 20.2617 20.4184 20.2584 20.3408H24.899C24.899 22.8448 23.9166 25.2463 22.1678 27.017C20.419 28.7876 18.0471 29.7824 15.574 29.7824C13.1008 29.7824 10.7289 28.7876 8.98015 27.017C7.23136 25.2463 6.2489 22.8448 6.2489 20.3408H6.24795ZM36.2074 19.6592C36.0986 16.0733 34.6152 12.6711 32.0715 10.1736C29.5278 7.676 26.1237 6.27924 22.5804 6.27924C19.0371 6.27924 15.6329 7.676 13.0892 10.1736C10.5456 12.6711 9.06218 16.0733 8.9534 19.6592H3.61914C3.70932 15.2528 5.50147 11.0577 8.61117 7.97371C11.7209 4.88971 15.9005 3.16246 20.2534 3.16246C24.6063 3.16246 28.7859 4.88971 31.8956 7.97371C35.0053 11.0577 36.7975 15.2528 36.8877 19.6592H36.2074ZM34.9187 19.6592C34.893 16.9932 33.8289 14.4451 31.9578 12.5691C30.0868 10.693 27.5599 9.64061 24.9266 9.64061C22.2934 9.64061 19.7665 10.693 17.8954 12.5691C16.0244 14.4451 14.9603 16.9932 14.9346 19.6592H9.63845C9.73647 16.245 11.1449 13.0038 13.5648 10.6239C15.9847 8.24396 19.2254 6.91268 22.5989 6.91268C25.9725 6.91268 29.2132 8.24396 31.6331 10.6239C34.053 13.0038 35.4614 16.245 35.5595 19.6592H34.9187ZM33.5705 19.6592C33.5733 19.5821 33.5743 19.504 33.5743 19.4254C33.5743 17.6357 32.8721 15.9193 31.6222 14.6538C30.3723 13.3883 28.6771 12.6773 26.9094 12.6773C25.1418 12.6773 23.4466 13.3883 22.1967 14.6538C20.9468 15.9193 20.2446 17.6357 20.2446 19.4254C20.2446 19.504 20.2446 19.5821 20.2484 19.6592H15.6092C15.6092 17.1552 16.5917 14.7536 18.3404 12.983C20.0892 11.2124 22.4611 10.2176 24.9343 10.2176C27.4074 10.2176 29.7793 11.2124 31.5281 12.983C33.2769 14.7536 34.2593 17.1552 34.2593 19.6592H33.5705Z" fill="white"/>
<path d="M57.0251 12.2782C56.2991 12.318 55.5862 12.0697 55.0381 11.586C54.8016 11.3628 54.6147 11.0913 54.4895 10.7895C54.3644 10.4878 54.3039 10.1625 54.3121 9.83534C54.3054 9.3962 54.4198 8.96387 54.6425 8.58694C54.8635 8.22126 55.1853 7.92905 55.5684 7.74631C56.118 7.50555 56.6949 7.33443 57.286 7.23683C57.9999 7.12313 58.702 6.94339 59.3835 6.69987V6.482C59.3995 6.31868 59.3803 6.15379 59.3273 5.99869C59.2743 5.84359 59.1887 5.70195 59.0765 5.58354C58.7298 5.36627 58.322 5.27104 57.9163 5.31265C57.6006 5.29455 57.287 5.3746 57.0175 5.54209C56.7652 5.74954 56.5823 6.03084 56.4939 6.34752L54.5344 5.98939C54.6967 5.28154 55.0992 4.6538 55.6717 4.2156C56.3955 3.78394 57.231 3.5832 58.0691 3.6396C58.8023 3.59955 59.5356 3.7175 60.2205 3.98568C60.6348 4.16605 60.9829 4.47356 61.2154 4.86486C61.4526 5.48773 61.551 6.15598 61.5034 6.82182L61.4806 9.37358C61.4671 9.91116 61.5019 10.4489 61.5844 10.9801C61.6672 11.3647 61.7976 11.7371 61.9724 12.0887H59.8377C59.781 11.9441 59.7134 11.7325 59.6301 11.4428C59.5935 11.3113 59.5682 11.2274 59.553 11.1864C59.2121 11.531 58.8112 11.8088 58.3705 12.0058C57.9449 12.1881 57.4872 12.2808 57.0251 12.2782ZM59.384 8.12373C59.106 8.21724 58.6642 8.32954 58.0701 8.45824C57.661 8.52283 57.2643 8.65146 56.8942 8.83951C56.7653 8.92163 56.659 9.03538 56.5851 9.17019C56.5112 9.30501 56.4721 9.45654 56.4715 9.61072C56.4707 9.75943 56.5003 9.9067 56.5584 10.0432C56.6166 10.1798 56.7021 10.3027 56.8095 10.4041C56.9237 10.5153 57.0587 10.6022 57.2066 10.6596C57.3546 10.7171 57.5123 10.7439 57.6707 10.7386C58.0736 10.7333 58.4641 10.5969 58.7847 10.3496C59.031 10.1733 59.2122 9.91891 59.2998 9.62663C59.371 9.27625 59.3993 8.91831 59.384 8.56091V8.12373ZM50.4069 12.2782C49.9254 12.2742 49.4518 12.1528 49.0264 11.9244C48.5589 11.6751 48.1571 11.3163 47.8543 10.8779V12.0916H45.8501V0.685364H48.0095V4.79304C48.2952 4.43578 48.6557 4.14717 49.065 3.94804C49.4742 3.74891 49.922 3.64422 50.376 3.64152C50.841 3.63098 51.3026 3.72329 51.7287 3.91202C52.1548 4.10075 52.535 4.38135 52.8429 4.73424C53.5441 5.62055 53.8922 6.74044 53.8189 7.87356C53.8189 9.27766 53.4856 10.3747 52.8239 11.1339C52.5297 11.4938 52.1603 11.7831 51.7424 11.9809C51.3244 12.1788 50.8683 12.2803 50.4069 12.2782ZM49.8014 5.31265C49.5546 5.30914 49.3103 5.36226 49.0867 5.46803C48.8631 5.57379 48.666 5.72947 48.5103 5.92336C48.127 6.46149 47.9435 7.11936 47.9924 7.78102C47.9477 8.43925 48.0861 9.09699 48.3918 9.67965C48.5423 9.94517 48.7595 10.1657 49.0214 10.3187C49.2832 10.4718 49.5804 10.5519 49.8828 10.5511C50.1192 10.55 50.3521 10.4936 50.5635 10.3864C50.7748 10.2791 50.9588 10.1238 51.101 9.93271C51.4814 9.35917 51.6588 8.67211 51.6042 7.98346C51.6654 7.26406 51.4874 6.5446 51.0987 5.93926C50.9451 5.74026 50.748 5.58009 50.5229 5.47135C50.2978 5.36262 50.0508 5.30829 49.8014 5.31265ZM73.9814 12.0897H71.8206V0.685364H73.98V6.73843L76.5084 3.82854H79.1672L76.3775 6.84737L79.3647 12.0907H77.0387L74.9869 8.37919L73.98 9.4454V12.0902L73.9814 12.0897ZM65.1044 12.0897H62.9435V3.82854H64.9492V5.04273C65.3908 4.42447 66.0259 3.97546 66.7512 3.76854C67.4766 3.56161 68.2497 3.60892 68.9452 3.90277C69.2949 4.04322 69.6031 4.27227 69.8402 4.56795C70.0435 4.8404 70.1876 5.15333 70.2629 5.48617C70.3548 5.97061 70.3947 6.46367 70.382 6.95678V12.0907H68.2249V7.87453C68.2549 7.29392 68.2085 6.71185 68.0869 6.14363C68.005 5.89674 67.8474 5.68277 67.637 5.53293C67.4151 5.3826 67.1527 5.30564 66.8858 5.31265C66.5265 5.30854 66.1748 5.41714 65.8789 5.62355C65.5897 5.82137 65.3744 6.1118 65.2676 6.44826C65.1294 7.07072 65.0739 7.70907 65.1025 8.34641V12.0887L65.1044 12.0897Z" fill="#414145"/>
<path d="M158.918 35.8725C156.863 35.8725 155.214 35.4445 154.014 34.601C152.834 33.7832 151.993 32.5536 151.652 31.1474L155.676 30.5261C155.8 31.2326 156.17 31.8709 156.718 32.3249C157.364 32.77 158.137 32.9861 158.916 32.9395C159.737 32.9957 160.554 32.7936 161.257 32.3611C161.425 32.2375 161.561 32.0742 161.653 31.8854C161.745 31.6966 161.79 31.488 161.785 31.2775C161.793 30.994 161.691 30.7185 161.499 30.5116C161.098 30.2329 160.639 30.0501 160.157 29.9771C156.938 29.2579 154.868 28.5922 154.007 27.9974C153.437 27.6287 152.972 27.1166 152.657 26.5112C152.342 25.9058 152.187 25.2279 152.208 24.5439C152.203 23.9028 152.339 23.2686 152.609 22.6884C152.878 22.1082 153.273 21.5967 153.764 21.192C154.796 20.2906 156.419 19.8337 158.587 19.8337C160.652 19.8337 162.205 20.1788 163.211 20.8599C164.245 21.5832 164.985 22.661 165.294 23.8941L161.512 24.6022C161.378 24.0476 161.052 23.5604 160.592 23.2294C160.009 22.8774 159.336 22.7112 158.658 22.7522C157.876 22.6932 157.092 22.848 156.389 23.2005C156.25 23.2865 156.134 23.4075 156.054 23.5518C155.974 23.6961 155.932 23.8588 155.932 24.0242C155.935 24.1707 155.973 24.3143 156.042 24.4426C156.112 24.5709 156.212 24.6801 156.332 24.7608C156.692 25.0292 157.951 25.4129 160.078 25.9022C162.206 26.3914 163.71 26.9992 164.553 27.7082C164.974 28.0835 165.305 28.5501 165.522 29.073C165.74 29.596 165.838 30.1618 165.809 30.7285C165.806 31.4266 165.648 32.115 165.347 32.7428C165.045 33.3707 164.608 33.9219 164.068 34.3556C163.438 34.8871 162.701 35.275 161.91 35.4932C160.935 35.7606 159.928 35.8883 158.918 35.8725ZM141.693 35.8725C140.345 35.9463 139.022 35.4853 138.004 34.5875C137.565 34.1731 137.217 33.669 136.985 33.1086C136.752 32.5481 136.64 31.944 136.655 31.3363C136.643 30.5206 136.855 29.7175 137.269 29.0174C137.679 28.3386 138.277 27.7962 138.988 27.4571C140.009 27.0097 141.08 26.6917 142.178 26.5104C143.504 26.2994 144.808 25.9658 146.074 25.5137V25.1088C146.103 24.8053 146.067 24.4991 145.969 24.211C145.87 23.9229 145.711 23.6599 145.502 23.4401C145.124 23.1094 144.399 22.9417 143.348 22.9417C142.761 22.9081 142.179 23.0568 141.678 23.3677C141.211 23.7532 140.872 24.2749 140.707 24.862L137.068 24.1968C137.37 22.8823 138.117 21.7165 139.18 20.9028C140.175 20.1932 141.673 19.8332 143.633 19.8332C145.413 19.8332 146.757 20.0496 147.629 20.4762C148.398 20.8114 149.045 21.3826 149.477 22.1092C149.832 22.7662 150.012 23.9891 150.012 25.7436L149.969 30.4827C149.943 31.481 150.007 32.4797 150.16 33.4663C150.314 34.1806 150.556 34.8726 150.88 35.5259H146.918C146.812 35.2541 146.683 34.8511 146.533 34.3262C146.467 34.0886 146.419 33.9281 146.39 33.8495C145.756 34.4878 145.011 35.002 144.192 35.3664C143.402 35.705 142.551 35.8772 141.693 35.8725ZM146.073 28.1565C145.563 28.3286 144.74 28.5378 143.632 28.7778C142.873 28.8973 142.136 29.1362 141.449 29.4859C141.21 29.6382 141.012 29.8492 140.875 30.0993C140.738 30.3493 140.665 30.6304 140.664 30.9165C140.662 31.1928 140.717 31.4663 140.825 31.72C140.933 31.9737 141.092 32.202 141.292 32.3905C141.504 32.5968 141.754 32.7581 142.029 32.8648C142.303 32.9715 142.596 33.0215 142.89 33.0118C143.639 33.0019 144.364 32.7484 144.96 32.2888C145.417 31.9609 145.753 31.4883 145.916 30.9454C146.049 30.2946 146.101 29.6297 146.073 28.9658V28.1565ZM90.7745 35.8725C89.4265 35.9463 88.1032 35.4853 87.0855 34.5875C86.6462 34.1731 86.2989 33.669 86.0665 33.1085C85.8341 32.5481 85.7219 31.944 85.7373 31.3363C85.7246 30.5206 85.9371 29.7174 86.3509 29.0174C86.7607 28.3372 87.3583 27.7936 88.07 27.4537C89.0906 27.0062 90.1619 26.6882 91.2596 26.5071C92.5856 26.296 93.8898 25.9624 95.1557 25.5103V25.1054C95.1851 24.802 95.1493 24.4957 95.0506 24.2076C94.952 23.9196 94.793 23.6566 94.5844 23.4367C94.2035 23.106 93.4804 22.9383 92.4293 22.9383C91.8429 22.9049 91.2604 23.0535 90.7597 23.3644C90.2927 23.75 89.954 24.2716 89.7895 24.8586L86.1505 24.1934C86.452 22.8789 87.1995 21.7132 88.2628 20.8994C89.2568 20.1899 90.7545 19.8298 92.7149 19.8298C94.4949 19.8298 95.8393 20.0462 96.7109 20.4728C97.4804 20.8082 98.1267 21.3793 98.559 22.1058C98.9142 22.7628 99.0941 23.9857 99.0941 25.7402L99.0508 30.4793C99.0252 31.4776 99.0889 32.4763 99.2412 33.4629C99.3955 34.1773 99.6376 34.8692 99.962 35.5226H95.9945C95.8893 35.2522 95.7631 34.8598 95.6089 34.3228C95.5417 34.0794 95.4951 33.9233 95.466 33.8461C94.8318 34.4844 94.0867 34.9986 93.2681 35.363C92.4795 35.7021 91.6312 35.8754 90.7745 35.8725ZM95.1542 28.1565C94.6448 28.3286 93.8241 28.5373 92.7135 28.7778C91.9538 28.8973 91.2171 29.1362 90.5303 29.4859C90.2911 29.6382 90.0938 29.8492 89.9565 30.0993C89.8193 30.3493 89.7466 30.6304 89.7452 30.9165C89.7437 31.1928 89.7986 31.4664 89.9067 31.7201C90.0148 31.9738 90.1736 32.202 90.3732 32.3905C90.5851 32.5969 90.8358 32.7582 91.1104 32.8649C91.3849 32.9716 91.6778 33.0216 91.9718 33.0118C92.7203 33.0019 93.4459 32.7484 94.0412 32.2888C94.4985 31.961 94.8348 31.4883 94.9971 30.9454C95.13 30.2946 95.1828 29.6297 95.1542 28.9658V28.1565ZM53.1143 35.8725C51.0596 35.8725 49.4106 35.4445 48.2109 34.601C47.0311 33.783 46.1906 32.5534 45.8501 31.1474L49.8742 30.5261C49.9978 31.2326 50.3675 31.8709 50.9163 32.3249C51.5618 32.77 52.3347 32.9861 53.1143 32.9395C53.9346 32.9956 54.7521 32.7936 55.4546 32.3611C55.6229 32.2375 55.759 32.0742 55.851 31.8854C55.943 31.6966 55.9881 31.488 55.9826 31.2775C55.9911 30.994 55.8884 30.7186 55.6969 30.5116C55.2955 30.2329 54.8368 30.0502 54.3554 29.9771C51.1344 29.2584 49.0664 28.5922 48.2047 27.9974C47.6415 27.6223 47.1782 27.1124 46.856 26.5129C46.5493 25.9037 46.395 25.2275 46.4066 24.5439C46.401 23.9028 46.5378 23.2687 46.8071 22.6885C47.0763 22.1083 47.471 21.5968 47.9619 21.192C48.9945 20.2906 50.6174 19.8337 52.7853 19.8337C54.85 19.8337 56.4034 20.1788 57.4093 20.8599C58.4429 21.5833 59.1829 22.6611 59.4926 23.8941L55.7107 24.6022C55.5766 24.0475 55.2498 23.5602 54.79 23.2294C54.2075 22.8775 53.5339 22.7113 52.8568 22.7522C52.0744 22.693 51.2908 22.8478 50.5878 23.2005C50.4482 23.2865 50.3329 23.4075 50.2528 23.5518C50.1728 23.6961 50.1308 23.8588 50.1308 24.0242C50.1334 24.1706 50.1711 24.3142 50.2406 24.4425C50.3102 24.5708 50.4096 24.68 50.5302 24.7608C50.8901 25.0292 52.1489 25.4134 54.2768 25.9022C56.4048 26.3909 57.9078 26.9987 58.7518 27.7082C59.1721 28.0835 59.5033 28.5501 59.7208 29.073C59.9382 29.596 60.0363 30.1618 60.0077 30.7285C60.0046 31.4266 59.8465 32.115 59.5452 32.7428C59.2438 33.3707 58.8069 33.9219 58.2667 34.3556C57.6361 34.8871 56.8999 35.275 56.1082 35.4932C55.1327 35.7608 54.1249 35.8884 53.1143 35.8725ZM125.495 35.5264H121.485V27.1163C121.532 26.1471 121.46 25.1757 121.271 24.2243C121.159 23.8371 120.926 23.4974 120.607 23.2564C120.242 23.027 119.816 22.9161 119.387 22.9388C118.792 22.9322 118.21 23.1085 117.717 23.4444C117.212 23.7972 116.838 24.311 116.654 24.9039C116.395 25.9372 116.287 27.0033 116.333 28.0683V35.5259H112.323V20.1807H116.021V22.276C116.614 21.5208 117.353 20.8973 118.194 20.4444C118.984 20.0376 119.859 19.8282 120.745 19.8337C121.625 19.8126 122.495 20.0216 123.271 20.4405C124.013 20.876 124.621 21.5115 125.027 22.276C125.615 21.5235 126.348 20.8991 127.181 20.4405C127.944 20.0391 128.791 19.8309 129.65 19.8337C130.636 19.8031 131.611 20.0401 132.476 20.52C133.251 20.986 133.856 21.6938 134.201 22.5372C134.53 23.563 134.67 24.6414 134.614 25.7185V35.5255H130.604V26.7548C130.604 25.2394 130.465 24.2484 130.19 23.8073C130.006 23.5225 129.75 23.2922 129.449 23.1398C129.148 22.9874 128.812 22.9184 128.477 22.9397C127.908 22.9427 127.354 23.1244 126.892 23.4598C126.379 23.8341 126.003 24.3701 125.822 24.9839C125.561 26.0194 125.45 27.0878 125.494 28.1555V35.5259L125.495 35.5264ZM73.8205 35.5264H69.8107V20.1807H73.5354V22.4351C74.1315 21.6258 74.8966 20.9598 75.7762 20.4844C76.6295 20.047 77.5743 19.824 78.5307 19.8341C79.3641 19.8236 80.1908 19.9877 80.9586 20.3161C81.608 20.5771 82.1805 21.0024 82.621 21.5515C82.9981 22.0588 83.2648 22.6411 83.4036 23.2603C83.5742 24.1597 83.6485 25.0752 83.625 25.9908V35.5255H79.6151V27.6947C79.6707 26.6163 79.5842 25.5351 79.3581 24.4797C79.2064 24.0211 78.9138 23.6237 78.5231 23.3456C78.1115 23.0688 77.6255 22.9276 77.1315 22.9412C76.4643 22.9339 75.8113 23.136 75.2621 23.5196C74.7253 23.8866 74.3259 24.4255 74.1281 25.05C73.8714 26.2061 73.7683 27.3917 73.8215 28.5754V35.5259L73.8205 35.5264ZM105.987 35.5264H101.978V20.1807H105.702V22.3628C106.132 21.5716 106.717 20.8782 107.422 20.3253C107.941 19.9958 108.543 19.8253 109.156 19.8341C110.088 19.8408 111.001 20.1057 111.796 20.6001L110.554 24.1399C110.002 23.7398 109.348 23.509 108.671 23.4752C108.155 23.4605 107.651 23.6263 107.242 23.9447C106.771 24.4017 106.449 24.9943 106.322 25.6423C106.099 26.4584 105.988 28.1893 105.988 30.7863V35.5255L105.987 35.5264ZM66.6287 35.5264H62.6179V20.1807H66.6282L66.6287 35.5264ZM66.6287 18.1004H62.6179V14.3431H66.6282V18.0994L66.6287 18.1004Z" fill="#414145"/>
</svg>
