<svg width="73" height="73" viewBox="0 0 73 73" fill="none" xmlns="http://www.w3.org/2000/svg">
<path d="M57.0157 4.63772L22.2181 15.6304L61.8251 9.0348C61.5988 4.51208 58.5246 4.21895 57.0157 4.63772Z" fill="#FDFDFD"/>
<path fill-rule="evenodd" clip-rule="evenodd" d="M12.1248 29.1378C12.4306 28.5068 13.0086 28.1522 13.5696 28.1522H58.6204C59.2972 28.1522 60.1061 28.7034 60.635 29.7176C61.4853 31.3478 62.9937 33.1345 65.4435 34.2649C66.3201 34.6694 66.776 35.3502 66.776 35.9495V53.9079C66.776 54.4926 66.3659 55.1313 65.6181 55.4889C63.9305 56.296 61.879 57.6357 60.6855 59.5749C60.3291 60.154 59.9134 60.6756 59.4698 61.0387C59.0314 61.3977 58.6413 61.5435 58.2888 61.5435H14.1412C13.47 61.5435 12.683 60.9959 12.2276 59.9818C11.583 58.5465 10.4578 56.9681 8.61881 56.0475C7.31764 55.3961 6.65815 54.5858 6.65815 53.8913V35.3547C6.65815 34.8728 6.92505 34.4418 7.37256 34.2167C8.1232 33.8391 8.95206 33.3612 9.78376 32.5507C10.6104 31.7451 11.3843 30.6661 12.1248 29.1378ZM36.8193 55.9783C43.0691 55.9783 48.1356 50.995 48.1356 44.8478C48.1356 38.7007 43.0691 33.7174 36.8193 33.7174C30.5695 33.7174 25.503 38.7007 25.503 44.8478C25.503 50.995 30.5695 55.9783 36.8193 55.9783ZM54.9569 44.725C54.9569 42.4947 56.7987 40.6832 59.0662 40.6832C61.343 40.6832 63.1756 42.4856 63.1756 44.725C63.1756 46.9553 61.3338 48.7668 59.0662 48.7668C56.7987 48.7668 54.9569 46.9553 54.9569 44.725ZM10.9018 44.725C10.9018 42.4947 12.7436 40.6832 15.0111 40.6832C17.2787 40.6832 19.1205 42.4856 19.1205 44.725C19.1205 46.9553 17.2787 48.7668 15.0111 48.7668C12.7436 48.7668 10.9018 46.9553 10.9018 44.725Z" fill="#FDFDFD"/>
<path fill-rule="evenodd" clip-rule="evenodd" d="M1 29.5435C1 24.9331 4.79986 21.1957 9.48723 21.1957H64.5128C69.2001 21.1957 73 24.9331 73 29.5435V60.1522C73 64.7626 69.2001 68.5 64.5128 68.5H9.48723C4.79986 68.5 1 64.7626 1 60.1522V29.5435ZM13.5696 25.3696C11.772 25.3696 10.2798 26.4776 9.57091 27.9407C8.93828 29.2464 8.33904 30.0414 7.79255 30.574C7.25111 31.1017 6.70684 31.4261 6.08435 31.7393C4.7024 32.4345 3.82908 33.8155 3.82908 35.3547V53.8913C3.82908 56.2703 5.85175 57.7845 7.33549 58.5273C8.40911 59.0648 9.16022 60.0383 9.63973 61.1061C10.3492 62.686 11.9292 64.3261 14.1412 64.3261H58.2888C59.4988 64.3261 60.5076 63.8095 61.2797 63.1774C62.0466 62.5495 62.653 61.7514 63.1057 61.0158C63.8899 59.7417 65.3765 58.6986 66.8553 57.9914C68.3547 57.2743 69.6051 55.7808 69.6051 53.9079V35.9495C69.6051 33.9405 68.1694 32.4492 66.6451 31.7458C64.8564 30.9204 63.7679 29.6281 63.1522 28.4476C62.3788 26.9645 60.7972 25.3696 58.6204 25.3696H13.5696Z" fill="#FDFDFD"/>
<path d="M66.7471 11.4644L20.8035 18.413H71.6807V16.2982C72.174 12.1895 68.5972 11.3637 66.7471 11.4644Z" fill="#FDFDFD"/>
<path d="M30.2881 48.2662V40.7264H33.5375C34.1595 40.7264 34.6903 40.8283 35.13 41.032C35.5724 41.2332 35.9088 41.5192 36.1394 41.8898C36.3726 42.2579 36.4893 42.6911 36.4893 43.1894C36.4893 43.6901 36.3713 44.1208 36.1354 44.4816C35.8995 44.8399 35.5576 45.1148 35.1099 45.3063C34.6649 45.4977 34.126 45.5934 33.4933 45.5934H31.3176V44.3122H33.2118C33.5442 44.3122 33.8203 44.2705 34.0402 44.1871C34.26 44.1036 34.4236 43.9784 34.5308 43.8116C34.6407 43.6447 34.6957 43.4373 34.6957 43.1894C34.6957 42.939 34.6407 42.7279 34.5308 42.5561C34.4236 42.3843 34.2587 42.2543 34.0362 42.1659C33.8163 42.0751 33.5388 42.0297 33.2037 42.0297H32.0294V48.2662H30.2881ZM34.7359 44.835L36.7828 48.2662H34.8606L32.8579 44.835H34.7359Z" fill="white"/>
<path d="M37.6877 50.3868V42.6114H39.3767V43.5612H39.4531C39.5282 43.409 39.6368 43.2544 39.7788 43.0973C39.9236 42.9378 40.1113 42.8053 40.3419 42.6997C40.5751 42.5917 40.8646 42.5377 41.2105 42.5377C41.6609 42.5377 42.0765 42.6457 42.4572 42.8617C42.8379 43.0752 43.1422 43.398 43.37 43.83C43.5979 44.2595 43.7119 44.7982 43.7119 45.4462C43.7119 46.0769 43.6006 46.6095 43.3781 47.0439C43.1582 47.4759 42.858 47.8036 42.4773 48.0269C42.0992 48.2478 41.6757 48.3583 41.2065 48.3583C40.874 48.3583 40.5912 48.3079 40.3579 48.2073C40.1274 48.1067 39.9384 47.9803 39.7909 47.8281C39.6435 47.6735 39.5309 47.5176 39.4531 47.3606H39.4008V50.3868H37.6877ZM39.3646 45.4388C39.3646 45.775 39.4156 46.0683 39.5175 46.3187C39.6193 46.569 39.7668 46.7641 39.9598 46.904C40.1528 47.0415 40.3874 47.1102 40.6636 47.1102C40.9424 47.1102 41.1783 47.0403 41.3714 46.9004C41.5644 46.758 41.7105 46.5617 41.8097 46.3113C41.9116 46.0585 41.9625 45.7677 41.9625 45.4388C41.9625 45.1124 41.9129 44.8252 41.8137 44.5773C41.7145 44.3294 41.5684 44.1355 41.3754 43.9956C41.1823 43.8557 40.9451 43.7858 40.6636 43.7858C40.3848 43.7858 40.1488 43.8533 39.9558 43.9883C39.7654 44.1233 39.6193 44.3147 39.5175 44.5626C39.4156 44.8105 39.3646 45.1025 39.3646 45.4388Z" fill="white"/>
</svg>
