<svg width="73" height="72" viewBox="0 0 73 72" fill="none" xmlns="http://www.w3.org/2000/svg">
<path fill-rule="evenodd" clip-rule="evenodd" d="M33.2477 1.1642C27.9322 2.6456 27.2729 8.99092 27.6077 11.9784C25.3827 15.7114 27.9167 18.6694 29.4618 19.6818C30.9451 23.9482 35.1275 25.6074 37.0333 25.9037C41.1745 25.4889 43.858 21.5829 44.6821 19.6818C48.267 16.1857 47.1544 13.0895 46.15 11.9784C46.5209 9.48956 45.7895 6.79347 45.3774 5.75653C42.7815 -0.465341 36.2093 0.102529 33.2477 1.1642ZM6 68.0803C6 66.1916 7.52282 64.6605 9.40131 64.6605H64.4701C66.3486 64.6605 67.8714 66.1916 67.8714 68.0803C67.8714 69.9689 66.3486 71.5 64.4701 71.5H9.40131C7.52282 71.5 6 69.9689 6 68.0803ZM11.0993 57.2907L17.6997 61.7479C17.4358 61.237 17.2528 60.6746 17.1686 60.0766L15.2582 46.5006C14.8168 43.3636 17.2388 40.5596 20.3901 40.5596H53.4812C56.6325 40.5596 59.0545 43.3636 58.613 46.5006L56.7026 60.0766C56.6061 60.762 56.3798 61.4005 56.0508 61.9684L62.5254 58.289C64.5394 57.1445 65.5551 54.7965 65.0145 52.5349L61.5317 37.9632C61.1396 36.3229 59.982 34.9749 58.4252 34.3457L45.3164 29.048C44.7019 28.7996 44.0457 28.672 43.3834 28.672H31.6699C31.0815 28.672 30.4974 28.7727 29.9427 28.9699L14.8108 34.3472C13.0667 34.967 11.7833 36.4744 11.4433 38.3025L8.89447 52.0071C8.51396 54.053 9.38081 56.1303 11.0993 57.2907ZM37.4429 58.3143C40.2437 58.3143 42.5143 56.0437 42.5143 53.2429C42.5143 50.442 40.2437 48.1714 37.4429 48.1714C34.642 48.1714 32.3714 50.442 32.3714 53.2429C32.3714 56.0437 34.642 58.3143 37.4429 58.3143Z" fill="#FDFDFD"/>
</svg>
