<svg width="73" height="72" viewBox="0 0 73 72" fill="none" xmlns="http://www.w3.org/2000/svg">
<path d="M6.5 29.25C5.27 29.25 4.25 28.23 4.25 27V19.5C4.25 10.8 11.33 3.75 20 3.75H27.5C28.73 3.75 29.75 4.77 29.75 6C29.75 7.23 28.73 8.25 27.5 8.25H20C13.79 8.25 8.75 13.29 8.75 19.5V27C8.75 28.23 7.73 29.25 6.5 29.25Z" fill="#FDFDFD"/>
<path d="M66.5 29.25C65.27 29.25 64.25 28.23 64.25 27V19.5C64.25 13.29 59.21 8.25 53 8.25H45.5C44.27 8.25 43.25 7.23 43.25 6C43.25 4.77 44.27 3.75 45.5 3.75H53C61.67 3.75 68.75 10.8 68.75 19.5V27C68.75 28.23 67.73 29.25 66.5 29.25Z" fill="#FDFDFD"/>
<path d="M53 68.25H48.5C47.27 68.25 46.25 67.23 46.25 66C46.25 64.77 47.27 63.75 48.5 63.75H53C59.21 63.75 64.25 58.71 64.25 52.5V48C64.25 46.77 65.27 45.75 66.5 45.75C67.73 45.75 68.75 46.77 68.75 48V52.5C68.75 61.2 61.67 68.25 53 68.25Z" fill="#FDFDFD"/>
<path d="M27.5 68.25H20C11.33 68.25 4.25 61.2 4.25 52.5V45C4.25 43.77 5.27 42.75 6.5 42.75C7.73 42.75 8.75 43.77 8.75 45V52.5C8.75 58.71 13.79 63.75 20 63.75H27.5C28.73 63.75 29.75 64.77 29.75 66C29.75 67.23 28.73 68.25 27.5 68.25Z" fill="#FDFDFD"/>
<path d="M42.5 54.75H30.5C23.24 54.75 19.25 50.76 19.25 43.5V28.5C19.25 21.24 23.24 17.25 30.5 17.25H42.5C49.76 17.25 53.75 21.24 53.75 28.5V43.5C53.75 50.76 49.76 54.75 42.5 54.75ZM30.5 21.75C25.76 21.75 23.75 23.76 23.75 28.5V43.5C23.75 48.24 25.76 50.25 30.5 50.25H42.5C47.24 50.25 49.25 48.24 49.25 43.5V28.5C49.25 23.76 47.24 21.75 42.5 21.75H30.5Z" fill="#FDFDFD"/>
<path d="M57.5 38.25H15.5C14.27 38.25 13.25 37.23 13.25 36C13.25 34.77 14.27 33.75 15.5 33.75H57.5C58.73 33.75 59.75 34.77 59.75 36C59.75 37.23 58.73 38.25 57.5 38.25Z" fill="#FDFDFD"/>
</svg>
