<svg width="1340" height="800" viewBox="0 0 1340 800" fill="none" xmlns="http://www.w3.org/2000/svg">
<g opacity="0.5">
<g clip-path="url(#clip0_428_7647)">
<path d="M-239.199 -119.666C-67.6762 -16.1768 1.03266 207.261 170.146 314.637C297 395.18 456.312 395.926 606.076 408.054C755.84 420.183 919.96 455.259 1008.99 576.267C1052.75 635.731 1083.3 718.487 1155.43 734.279C1193.38 742.589 1232.54 728.635 1271.37 729.43C1396.09 731.981 1480.77 879.95 1605.44 884.022" stroke="url(#paint0_linear_428_7647)" stroke-miterlimit="10"/>
<path d="M1601.43 889.687C1480.37 885.093 1397.7 742.593 1277.21 738.547C1239.69 737.286 1201.9 750.069 1165.3 741.574C1095.75 725.427 1065.6 645.577 1023.93 587.263C1004.11 559.521 981.529 535.322 954.766 515.531C928.895 496.399 899.692 481.725 869.24 470.353C839.5 459.28 808.459 451.265 776.616 444.936C744.802 438.63 711.843 433.971 679.52 428.935C658.455 425.64 638.057 422.391 618.117 419.499C598.376 416.637 578.637 413.943 558.705 411.319C463.587 398.589 361.69 386.975 269.508 356.588C239.076 346.521 209.711 334.274 181.784 318.34C154.527 302.841 129.631 284.439 106.325 263.337C63.1573 224.247 26.7908 176.221 -9.25888 128.285C-77.7572 37.1962 -146.106 -53.7473 -243.095 -105.86" stroke="url(#paint1_linear_428_7647)" stroke-miterlimit="10"/>
<path d="M1597.42 895.35C1479.98 890.235 1399.31 753.203 1283.04 747.662C1246.84 745.937 1210.41 757.55 1175.18 748.867C1108.2 732.367 1078.5 655.378 1038.88 598.261C1019.19 569.888 997.749 544.305 970.716 523.918C944.578 504.207 914.36 490.043 883.317 479.76C852.953 469.758 821.574 463.276 789.342 458.161C757.113 453.081 723.331 449.302 690.734 443.363C669.466 439.465 649.49 435.066 630.156 430.946C611.063 426.877 592.13 422.968 572.9 419.136C481.015 400.837 377.276 384.793 283.047 356.78C252.009 347.489 222.026 336.617 193.42 322.044C165.438 307.895 139.712 290.793 115.475 270.242C70.5907 232.174 33.5287 182.913 -3.70624 134.708C-74.4459 43.1187 -147.763 -44.9986 -246.988 -92.0525" stroke="url(#paint2_linear_428_7647)" stroke-miterlimit="10"/>
<path d="M1593.4 901.015C1479.59 895.381 1400.92 763.815 1288.88 756.779C1253.98 754.587 1218.93 765.028 1185.05 756.162C1120.65 739.307 1091.44 665.135 1053.81 609.26C1034.27 580.243 1013.97 553.287 986.662 532.307C960.258 512.015 929.026 498.364 897.392 489.165C866.403 480.235 834.685 475.287 802.068 471.385C769.422 467.534 734.823 464.635 701.951 457.793C680.476 453.29 660.933 447.748 642.199 442.392C623.756 437.12 605.625 431.964 587.102 426.953C498.457 402.968 392.867 382.613 296.59 356.971C264.947 348.454 234.375 338.895 205.062 325.751C176.38 312.889 149.8 297.151 124.633 277.15C78.0361 240.103 40.2733 189.604 1.85479 141.133C-71.1262 49.0446 -149.415 -36.2476 -250.877 -78.2431" stroke="url(#paint3_linear_428_7647)" stroke-miterlimit="10"/>
<path d="M1589.39 906.682C1479.19 900.525 1402.54 774.427 1294.71 765.896C1261.13 763.241 1227.44 772.511 1194.92 763.457C1133.1 746.249 1104.43 674.851 1068.75 620.257C1049.36 590.584 1030.19 562.269 1002.61 540.697C975.942 519.828 943.695 506.686 911.469 498.572C879.855 490.713 847.802 487.299 814.794 484.61C781.73 481.984 746.311 479.967 713.165 472.221C691.488 467.113 672.378 460.434 654.239 453.836C636.453 447.367 619.115 440.959 601.298 434.767C515.879 405.084 408.457 380.43 310.131 357.158C277.882 349.418 246.697 341.212 216.703 329.452C187.3 317.922 159.885 303.502 133.787 284.05C85.4753 248.023 47.0134 196.291 7.41237 147.551C-67.81 54.9628 -151.067 -27.5033 -254.77 -64.4387" stroke="url(#paint4_linear_428_7647)" stroke-miterlimit="10"/>
<path d="M1585.38 912.345C1478.8 905.666 1404.15 785.035 1300.54 775.011C1268.28 771.889 1235.96 779.992 1204.79 770.75C1145.55 753.19 1117.47 684.525 1083.7 631.255C1064.45 600.909 1046.41 571.252 1018.56 549.085C991.625 527.636 958.363 515.003 925.547 507.976C893.306 501.188 860.918 499.306 827.524 497.833C794.043 496.436 757.804 495.297 724.383 486.648C702.5 480.935 683.83 473.125 666.286 465.281C649.156 457.622 632.61 449.949 615.501 442.581C533.301 407.184 424.051 378.244 323.677 357.348C290.824 350.381 259.024 343.535 228.349 333.155C198.222 322.959 169.979 309.855 142.947 290.952C92.9203 255.946 53.7601 202.977 12.9754 153.971C-64.4856 60.8843 -152.716 -18.7577 -258.653 -50.6337" stroke="url(#paint5_linear_428_7647)" stroke-miterlimit="10"/>
<path d="M1581.37 918.01C1478.4 910.81 1405.76 795.647 1306.38 784.128C1275.43 780.54 1244.47 787.472 1214.66 778.046C1158 760.131 1130.56 694.165 1098.64 642.255C1079.55 611.226 1062.62 580.237 1034.51 557.476C1007.31 535.45 973.027 523.329 939.62 517.384C906.755 511.668 874.029 511.318 840.246 511.06C806.347 510.887 769.288 510.631 735.593 501.078C713.507 494.762 695.277 485.828 678.323 476.727C661.853 467.885 646.095 458.939 629.693 450.396C550.711 409.27 439.593 376.272 337.21 357.538C303.737 351.414 271.334 345.86 239.982 336.858C209.129 327.999 180.056 316.209 152.097 297.857C100.357 263.871 60.4993 209.667 18.5283 160.394C-61.1741 66.8069 -154.374 -10.0091 -262.55 -36.8277" stroke="url(#paint6_linear_428_7647)" stroke-miterlimit="10"/>
<path d="M1577.35 923.676C1478.01 915.953 1407.38 806.26 1312.21 793.245C1282.58 789.193 1252.99 794.954 1224.53 785.343C1170.45 767.075 1143.68 703.773 1113.57 653.253C1094.67 621.529 1078.84 589.221 1050.45 565.865C1022.98 543.261 987.703 531.581 953.694 526.792C920.213 522.079 887.141 523.33 852.971 524.288C818.655 525.343 780.778 525.966 746.806 515.51C724.516 508.59 706.725 498.537 690.362 488.174C674.549 478.158 659.582 467.926 643.889 458.214C568.121 411.337 455.183 374.11 350.75 357.731C316.672 352.387 283.648 348.19 251.62 340.567C220.04 333.047 190.139 322.567 161.249 304.765C107.794 271.8 67.2365 216.362 24.083 166.82C-57.8607 72.7335 -156.031 -1.25737 -266.444 -23.0176" stroke="url(#paint7_linear_428_7647)" stroke-miterlimit="10"/>
<path d="M1573.34 929.338C1477.61 921.094 1408.99 816.868 1318.04 802.359C1289.72 797.84 1261.5 802.434 1234.4 792.635C1182.9 774.012 1156.84 713.34 1128.51 664.249C1109.79 631.815 1095.05 598.203 1066.4 574.252C1038.67 551.066 1002.37 539.894 967.769 536.195C933.664 532.546 900.254 535.336 865.696 537.509C830.961 539.789 792.265 541.294 758.021 529.935C735.525 522.411 718.172 511.249 702.403 499.616C687.247 488.433 673.072 476.902 658.086 466.025C585.538 413.381 470.772 371.936 364.288 357.917C329.607 353.35 295.96 350.519 263.258 344.266C230.95 338.088 200.223 328.918 170.399 311.667C115.231 279.725 73.9737 223.047 29.6366 173.24C-54.5474 78.6505 -157.689 7.49121 -270.34 -9.21438" stroke="url(#paint8_linear_428_7647)" stroke-miterlimit="10"/>
<path d="M1569.33 935.004C1477.22 926.241 1410.6 827.482 1323.88 811.477C1296.87 806.493 1270.02 809.915 1244.28 799.931C1195.35 780.954 1170.06 722.885 1143.45 675.25C1124.93 642.093 1111.27 607.185 1082.35 582.644C1054.35 558.881 1017.03 548.217 981.845 545.604C947.112 543.026 913.37 547.35 878.423 550.737C843.272 554.246 803.755 556.63 769.237 544.367C746.537 536.24 729.616 523.975 714.445 511.064C699.94 498.72 686.565 485.882 672.283 473.846C602.961 415.416 486.366 369.766 377.828 358.113C342.545 354.324 308.273 352.858 274.899 347.976C241.862 343.143 210.308 335.277 179.556 318.577C122.672 287.656 80.716 229.744 35.1963 179.668C-51.2263 84.5801 -159.339 16.2458 -274.227 4.59867" stroke="url(#paint9_linear_428_7647)" stroke-miterlimit="10"/>
<path d="M1565.32 940.671C1476.83 931.385 1412.22 838.095 1329.71 820.595C1304.02 815.146 1278.54 817.398 1254.15 807.227C1207.8 787.898 1183.31 732.401 1158.39 686.248C1140.09 652.349 1127.49 616.168 1098.3 591.032C1070.03 566.69 1031.7 556.534 995.924 555.008C960.561 553.499 926.486 559.358 891.151 563.959C855.584 568.694 815.245 571.959 780.453 558.793C757.548 550.059 741.058 536.701 726.489 522.507C712.634 509.007 700.061 494.853 686.483 481.658C620.399 417.431 501.961 367.585 391.373 358.298C355.487 355.287 320.59 355.189 286.544 351.675C252.776 348.189 220.4 341.627 188.714 325.476C130.118 295.576 87.4641 236.427 40.758 186.084C-47.9059 90.4968 -160.989 24.9876 -278.115 18.4016" stroke="url(#paint10_linear_428_7647)" stroke-miterlimit="10"/>
<path d="M1561.3 946.333C1476.43 936.525 1413.83 848.703 1335.55 829.708C1311.17 823.793 1287.05 824.874 1264.02 814.518C1220.25 794.835 1196.6 741.886 1173.33 697.243C1155.27 662.593 1143.71 625.149 1114.24 599.417C1085.71 574.496 1046.36 564.853 1009.99 564.408C974.006 563.972 939.593 571.365 903.869 577.178C867.883 583.14 826.728 587.282 791.66 573.216C768.551 563.878 752.483 549.426 738.523 533.946C725.312 519.294 713.55 503.819 700.672 489.466C637.84 419.432 517.548 365.393 404.903 358.481C368.413 356.241 332.891 357.52 298.174 355.371C263.675 353.235 230.474 347.973 197.858 332.371C137.547 303.491 94.1932 243.11 46.3046 192.498C-44.6007 96.4105 -162.653 33.7275 -282.018 32.1988" stroke="url(#paint11_linear_428_7647)" stroke-miterlimit="10"/>
<path d="M1557.29 951.999C1476.04 941.669 1415.44 859.313 1341.38 838.826C1318.32 832.445 1295.57 832.358 1273.89 821.814C1232.7 801.777 1209.93 751.352 1188.27 708.243C1170.47 672.827 1159.93 634.134 1130.19 607.809C1101.39 582.311 1061.02 573.18 1024.07 573.82C987.453 574.457 952.706 583.38 916.596 590.409C880.194 597.598 838.219 602.621 802.877 587.652C779.562 577.71 763.914 562.169 750.566 545.398C737.992 529.597 727.05 512.796 714.872 497.288C655.304 421.436 533.143 363.212 418.446 358.679C381.355 357.213 345.207 359.87 309.816 359.085C274.589 358.3 240.561 354.336 207.014 339.285C144.99 311.426 100.936 249.807 51.8636 198.929C-41.283 102.342 -164.306 42.484 -285.905 46.0148" stroke="url(#paint12_linear_428_7647)" stroke-miterlimit="10"/>
<path d="M1553.28 957.664C1475.64 946.813 1417.05 869.926 1347.21 847.942C1325.46 841.098 1304.08 839.841 1283.76 829.109C1245.15 808.718 1223.3 760.798 1203.21 719.24C1185.71 683.041 1176.14 643.116 1146.14 616.196C1117.07 590.116 1075.69 581.57 1038.14 583.223C1000.91 585.005 965.819 595.387 929.32 603.63C892.499 612.046 849.706 617.949 814.09 602.076C790.571 591.532 775.334 574.902 762.605 556.839C750.664 539.891 740.551 521.761 729.066 505.099C672.778 423.425 548.732 361.015 431.982 358.864C394.287 358.169 357.517 362.21 321.449 362.782C285.491 363.354 250.64 360.684 216.163 346.183C152.424 319.344 107.672 256.488 57.4158 205.345C-37.9695 108.259 -165.964 51.2262 -289.802 59.8144" stroke="url(#paint13_linear_428_7647)" stroke-miterlimit="10"/>
<path d="M1549.27 963.327C1475.25 951.953 1418.67 880.535 1353.05 857.056C1332.61 849.746 1312.6 847.318 1293.63 836.401C1257.6 815.656 1236.71 770.222 1218.15 730.236C1200.98 693.237 1192.36 652.095 1162.08 624.582C1132.76 597.925 1090.36 589.891 1052.22 592.626C1014.36 595.475 978.932 607.393 942.048 616.852C904.811 626.494 861.196 633.278 825.305 616.502C801.581 605.353 786.749 587.638 774.646 568.281C763.332 550.186 754.056 530.726 743.264 512.91C690.268 425.414 564.326 358.597 445.523 359.051C407.222 359.054 369.83 364.552 333.09 366.482C296.405 368.41 260.726 367.035 225.318 353.083C159.865 327.268 114.415 263.176 62.9736 211.763C-34.6531 114.177 -167.62 59.9722 -293.694 73.616" stroke="url(#paint14_linear_428_7647)" stroke-miterlimit="10"/>
<path d="M1545.25 968.993C1474.85 957.098 1420.28 891.148 1358.88 866.175C1339.76 858.397 1321.11 854.801 1303.51 843.697C1270.05 822.6 1250.15 779.634 1233.09 741.236C1216.29 703.421 1208.58 661.08 1178.03 632.975C1148.44 605.739 1105.02 598.214 1066.3 602.035C1027.81 605.956 992.049 619.407 954.773 630.08C917.119 640.95 872.684 648.613 836.519 630.931C812.591 619.178 798.161 600.374 786.689 579.726C775.999 560.484 767.566 539.694 757.463 520.725C707.771 427.408 579.915 356.413 459.066 359.242C420.159 360.021 382.149 366.9 344.732 370.187C307.318 373.474 270.815 373.39 234.474 359.987C167.306 335.192 121.158 269.864 68.5329 218.185C-31.3351 120.099 -169.27 68.7205 -297.581 87.4227" stroke="url(#paint15_linear_428_7647)" stroke-miterlimit="10"/>
<path d="M1541.24 974.658C1474.46 962.244 1421.89 901.76 1364.71 875.291C1346.91 867.05 1329.63 862.284 1313.38 850.992C1282.5 829.541 1263.63 789.035 1248.03 752.233C1231.64 713.586 1224.8 670.062 1193.98 641.362C1164.12 613.548 1119.69 606.533 1080.37 611.439C1041.26 616.432 1005.17 631.414 967.502 643.303C929.431 655.398 884.178 663.944 847.737 645.357C823.607 632.999 809.573 613.11 798.733 591.169C788.66 570.78 781.079 548.664 771.665 528.539C725.291 429.4 595.508 354.23 472.609 359.43C433.098 360.983 394.469 369.248 356.375 373.891C318.235 378.538 280.902 379.744 243.632 366.895C174.752 343.121 127.901 276.558 74.0926 224.613C-28.0167 126.028 -170.92 77.4752 -301.472 101.237" stroke="url(#paint16_linear_428_7647)" stroke-miterlimit="10"/>
<path d="M1537.23 980.322C1474.06 967.385 1423.51 912.37 1370.55 884.407C1354.06 875.699 1338.15 869.762 1323.25 858.285C1294.95 836.48 1277.15 798.424 1262.97 763.23C1247.05 723.732 1241.02 679.045 1209.93 649.748C1179.8 621.356 1134.36 614.851 1094.45 620.845C1054.71 626.909 1018.28 643.424 980.226 656.527C941.737 669.851 895.664 679.275 858.952 659.786C834.615 646.823 820.974 625.847 810.773 602.616C801.314 581.079 794.587 557.634 785.86 536.356C742.813 431.402 611.094 352.048 486.149 359.62C446.033 361.949 406.783 371.6 368.015 377.594C329.149 383.602 290.985 386.1 252.785 373.797C182.19 351.044 134.641 283.245 79.6493 231.034C-24.6987 131.95 -172.576 86.2212 -305.364 115.042" stroke="url(#paint17_linear_428_7647)" stroke-miterlimit="10"/>
<path d="M1533.21 985.987C1473.67 972.528 1425.12 922.982 1376.38 893.522C1361.2 884.351 1346.66 877.243 1333.12 865.582C1307.39 843.423 1290.7 807.808 1277.91 774.232C1262.52 733.862 1257.23 688.032 1225.87 658.143C1195.48 629.17 1149.02 623.179 1108.52 630.255C1068.16 637.39 1031.39 655.438 992.95 669.757C954.043 684.306 907.151 694.612 870.164 674.22C845.623 660.654 832.37 638.585 822.811 614.067C813.965 591.377 808.097 566.612 800.055 544.176C760.343 433.41 626.679 349.869 499.685 359.814C458.963 362.917 419.108 374.023 379.65 381.302C340.071 388.74 301.067 392.458 261.934 380.705C189.624 358.971 141.379 289.937 85.2012 237.459C-21.387 137.873 -174.234 94.9728 -309.262 128.851" stroke="url(#paint18_linear_428_7647)" stroke-miterlimit="10"/>
<path d="M1529.2 991.653C1473.28 977.672 1426.73 933.591 1382.22 902.64C1368.36 893.003 1355.18 884.724 1342.99 872.878C1319.84 850.363 1304.29 817.193 1292.85 785.229C1278.07 743.968 1273.45 697.012 1241.82 666.53C1211.16 636.978 1163.69 631.497 1122.6 639.659C1081.61 647.865 1044.5 667.448 1005.68 682.979C966.353 698.756 918.64 709.941 881.379 688.645C856.632 674.475 843.769 651.313 834.852 625.508C826.616 601.668 821.659 575.566 814.252 551.987C778.103 435.345 642.266 347.684 513.225 360.001C471.899 363.877 431.429 376.358 391.291 385.002C350.987 393.79 311.152 398.808 271.091 387.606C197.068 366.894 148.122 296.625 90.7614 243.878C-18.0682 143.792 -175.886 103.717 -313.148 142.654" stroke="url(#paint19_linear_428_7647)" stroke-miterlimit="10"/>
<path d="M1525.19 997.316C1472.88 982.813 1428.35 944.202 1388.05 911.756C1375.51 901.652 1363.69 892.205 1352.87 880.172C1332.3 857.306 1317.92 826.575 1307.79 796.227C1293.72 754.059 1289.67 705.995 1257.78 674.918C1226.85 644.789 1178.36 639.816 1136.68 649.064C1095.07 658.342 1057.62 679.458 1018.41 696.203C978.665 713.204 930.133 725.271 892.597 703.072C867.647 688.299 855.168 664.043 846.896 636.951C839.268 611.954 835.162 584.544 828.452 559.8C795.581 437.386 657.857 345.498 526.766 360.188C484.835 364.841 443.748 378.694 402.932 388.703C361.904 398.838 321.24 405.16 280.246 394.506C204.507 374.817 154.863 303.309 96.3192 250.296C-14.7518 149.71 -177.539 112.464 -317.04 156.456" stroke="url(#paint20_linear_428_7647)" stroke-miterlimit="10"/>
<path d="M1521.18 1002.98C1472.49 987.956 1429.96 954.814 1393.88 920.871C1382.65 910.303 1372.2 899.687 1362.73 887.465C1344.74 864.245 1331.57 835.966 1322.72 807.225C1309.46 764.127 1305.89 714.978 1273.72 683.308C1242.52 652.6 1193.02 648.138 1150.75 658.47C1108.51 668.817 1070.73 691.467 1031.13 709.428C990.967 727.658 941.617 740.605 903.807 717.502C878.651 702.125 866.522 676.78 858.935 648.399C851.88 622.255 848.661 593.523 842.647 567.617C813.052 439.43 673.442 343.319 540.305 360.38C497.769 365.807 456.064 381.034 414.569 392.411C372.817 403.896 331.322 411.518 289.397 401.414C211.945 382.746 161.6 310.003 101.873 256.722C-11.4362 155.637 -179.195 121.217 -320.935 170.266" stroke="url(#paint21_linear_428_7647)" stroke-miterlimit="10"/>
<path d="M1517.16 1008.65C1431.39 979.064 1362.1 905.554 1337.66 818.225C1325.34 774.18 1322.11 723.963 1289.66 691.698C1258.2 660.411 1207.69 656.459 1164.82 667.879C1121.96 679.297 1083.84 703.48 1043.85 722.655C1003.28 742.112 953.106 755.936 915.02 731.934C866.306 701.23 867.937 631.904 856.842 575.434C830.522 441.474 689.028 341.137 553.844 360.573C467.253 373.021 383.955 427.358 298.55 408.32C219.383 390.672 168.342 316.694 107.429 263.145C-8.12182 161.561 -180.852 129.965 -324.827 184.077" stroke="url(#paint22_linear_428_7647)" stroke-miterlimit="10"/>
</g>
<g opacity="0.25" clip-path="url(#clip1_428_7647)">
<path d="M1469.65 574.083C1274.53 528.724 1069.51 641.037 873.409 600.144C726.31 569.469 611.562 458.954 495.725 363.255C379.888 267.556 237.762 178.304 89.5741 203.006C16.7535 215.145 -62.8396 253.184 -125.568 214.226C-158.57 193.732 -176.919 156.431 -205.319 129.93C-296.518 44.8268 -460.38 91.8937 -552.61 7.908" stroke="url(#paint23_linear_428_7647)" stroke-miterlimit="10"/>
<path d="M-553.681 14.7681C-463.682 95.857 -305.07 51.3129 -215.856 132.401C-188.076 157.651 -169.889 193.159 -137.729 212.576C-76.603 249.483 0.676166 213.247 71.1979 200.477C104.748 194.403 137.808 192.793 170.792 197.258C202.679 201.573 233.846 211.409 263.608 224.482C292.65 237.273 320.494 253.164 347.737 270.822C374.944 288.477 401.824 308.111 428.51 327.032C445.911 339.352 462.801 351.242 479.114 363.068C495.263 374.776 511.294 386.604 527.415 398.616C604.489 455.792 685.646 518.493 772.923 560.961C801.761 574.956 831.352 586.645 862.484 594.686C892.832 602.573 923.509 606.733 954.929 607.849C1013.13 609.911 1072.68 600.825 1131.94 591.584C1244.55 574.02 1356.95 556.456 1462.82 586.698" stroke="url(#paint24_linear_428_7647)" stroke-miterlimit="10"/>
<path d="M-554.753 21.6246C-466.985 99.8167 -313.625 57.7942 -226.395 134.869C-199.232 158.87 -181.211 192.586 -149.895 210.922C-90.3704 245.777 -15.4075 211.279 52.8166 197.946C86.7063 191.322 119.916 187.928 153.51 192.154C185.991 196.24 217.531 207.149 246.957 221.414C275.701 235.408 302.718 252.634 329.394 271.433C356.044 290.257 382.899 311.096 410.412 329.56C428.379 341.59 445.768 352.36 462.503 362.883C479.028 373.275 495.329 383.669 511.788 394.326C590.426 445.255 675.992 506.064 763.082 551.662C791.813 566.636 820.889 579.74 851.558 589.231C881.485 598.592 911.852 604.262 943.555 606.421C1002.27 610.413 1063.19 600.927 1123.49 592.319C1238.05 575.958 1352.04 563.884 1455.99 599.312" stroke="url(#paint25_linear_428_7647)" stroke-miterlimit="10"/>
<path d="M-555.823 28.485C-470.288 103.783 -322.176 64.2805 -236.932 137.34C-210.386 160.091 -192.528 192.015 -162.056 209.273C-104.133 242.077 -31.4892 209.253 34.4398 195.421C68.6793 188.238 102.028 183.063 136.229 187.053C169.306 190.909 201.215 202.891 230.31 218.347C258.754 233.545 284.945 252.107 311.051 272.045C337.143 292.04 363.972 314.08 392.311 332.087C410.847 343.828 428.723 353.477 445.889 362.695C462.788 371.771 479.381 380.713 496.157 390.031C576.435 434.625 666.332 493.633 753.238 542.359C781.863 558.309 810.447 572.766 840.627 583.775C870.158 594.546 900.186 601.789 932.174 604.991C991.408 610.909 1053.68 601.024 1115.02 593.049C1231.54 577.893 1347.13 571.31 1449.15 611.924" stroke="url(#paint26_linear_428_7647)" stroke-miterlimit="10"/>
<path d="M-556.896 35.3442C-473.589 107.746 -330.73 70.7657 -247.469 139.811C-221.543 161.313 -203.848 191.445 -174.219 207.622C-117.899 238.375 -47.5772 207.164 16.0613 192.891C50.6535 185.135 84.1366 178.198 118.945 181.952C152.614 185.577 184.897 198.633 213.659 215.279C241.804 231.681 267.167 251.576 292.708 272.657C318.246 293.822 345.048 317.064 374.213 334.616C393.317 346.063 411.674 354.595 429.279 362.508C446.542 370.268 463.44 377.759 480.531 385.739C562.468 423.998 656.676 481.2 743.399 533.054C771.917 549.983 799.997 565.838 829.701 578.313C858.82 590.542 888.528 599.312 920.8 603.557C980.553 611.402 1044.19 601.12 1106.56 593.777C1225.04 579.825 1342.22 578.731 1442.32 624.535" stroke="url(#paint27_linear_428_7647)" stroke-miterlimit="10"/>
<path d="M-557.968 42.2006C-476.893 111.706 -339.282 77.2454 -258.008 142.279C-232.698 162.53 -215.17 190.871 -186.382 205.969C-131.665 234.673 -63.6703 205.01 -2.31723 190.361C32.6315 182.015 66.2453 173.332 101.662 176.847C135.926 180.245 168.582 194.373 197.01 212.208C224.858 229.815 249.392 251.042 274.363 273.264C299.344 295.601 326.121 320.045 356.113 337.14C375.786 348.298 394.616 355.712 412.664 362.316C430.284 368.766 447.497 374.798 464.901 381.441C548.512 413.359 647.019 468.764 733.554 523.747C761.967 541.652 789.539 558.911 818.769 572.85C847.478 586.54 876.862 596.832 909.421 602.121C969.693 611.893 1034.69 601.211 1098.1 594.503C1218.52 581.753 1337.3 586.152 1435.48 637.141" stroke="url(#paint28_linear_428_7647)" stroke-miterlimit="10"/>
<path d="M-559.039 49.0609C-480.194 115.67 -347.836 83.7305 -268.545 144.75C-243.855 163.75 -226.489 190.299 -198.546 204.319C-145.431 230.972 -79.7703 202.803 -20.6969 187.835C14.6128 178.887 48.3556 168.471 84.3797 171.749C119.236 174.917 152.264 190.121 180.361 209.144C207.91 227.954 231.619 250.516 256.021 273.88C280.448 297.386 307.198 323.034 338.017 339.672C358.256 350.539 377.554 356.841 396.055 362.133C414.027 367.275 431.562 371.844 449.276 377.152C534.576 402.719 637.25 456.515 723.718 514.45C751.987 533.392 779.093 551.997 807.846 567.397C836.144 582.551 865.208 594.363 898.048 600.694C958.835 612.391 1025.2 601.31 1089.64 595.237C1212.02 583.692 1332.39 593.58 1428.65 649.756" stroke="url(#paint29_linear_428_7647)" stroke-miterlimit="10"/>
<path d="M-560.112 55.9202C-483.496 119.633 -356.39 90.2157 -279.082 147.221C-255.01 164.973 -237.81 189.729 -210.708 202.672C-159.195 227.274 -95.8755 200.547 -39.074 185.309C-3.40491 175.741 30.4658 163.609 67.0984 166.649C102.55 169.588 135.989 185.807 163.712 206.08C191.004 226.038 213.845 249.989 237.677 274.494C261.546 299.171 288.27 326.02 319.917 342.204C340.723 352.78 360.486 357.973 379.443 361.949C397.763 365.79 415.627 368.887 433.649 372.862C520.651 392.065 627.578 444.098 713.876 505.151C742.035 525.073 768.639 545.084 796.917 561.943C824.802 578.565 853.547 591.894 886.67 599.268C947.977 612.892 1015.7 601.414 1081.18 595.973C1205.51 585.631 1327.48 601.01 1421.82 662.372" stroke="url(#paint30_linear_428_7647)" stroke-miterlimit="10"/>
<path d="M-561.181 62.7778C-486.797 123.594 -364.94 96.6993 -289.618 149.69C-266.162 166.191 -249.129 189.157 -222.868 201.02C-172.957 223.57 -111.984 198.229 -57.4496 182.78C-21.4173 172.574 12.5774 158.745 49.8186 161.546C85.8661 164.254 119.681 181.547 147.065 203.01C174.063 224.168 196.073 249.457 219.338 275.104C242.653 300.951 269.349 329.004 301.82 344.729C323.195 355.016 343.418 359.108 362.834 361.759C381.496 364.306 399.697 365.918 418.025 368.566C506.738 381.391 617.916 431.673 704.039 495.847C732.088 516.747 758.188 538.172 785.993 556.483C813.465 574.574 841.889 589.417 875.298 597.838C937.12 613.391 1006.21 601.511 1072.72 596.704C1199.01 587.564 1322.57 608.438 1414.99 674.985" stroke="url(#paint31_linear_428_7647)" stroke-miterlimit="10"/>
<path d="M-562.254 69.6369C-490.102 127.559 -373.497 103.183 -300.157 152.16C-277.321 167.41 -260.451 188.583 -235.035 199.368C-186.723 219.868 -128.111 195.862 -75.8319 180.252C-39.4405 169.387 -5.3139 153.879 32.5337 156.447C69.1734 158.925 103.364 177.292 130.414 199.945C157.115 222.307 178.294 248.928 200.991 275.717C223.749 302.736 250.421 331.99 283.718 347.259C305.659 357.255 326.341 360.256 346.219 361.574C365.224 362.834 383.763 362.952 402.394 364.278C492.827 370.704 608.248 419.247 694.194 486.549C722.133 508.427 747.728 531.265 775.061 551.029C802.118 570.593 830.225 586.948 863.916 596.41C926.256 613.89 996.707 601.613 1064.25 597.438C1192.5 589.501 1317.65 615.866 1408.15 687.598" stroke="url(#paint32_linear_428_7647)" stroke-miterlimit="10"/>
<path d="M-563.327 76.4961C-493.407 131.521 -382.05 109.668 -310.697 154.63C-288.478 168.632 -271.774 188.012 -247.198 197.718C-200.49 216.169 -144.247 193.448 -94.2105 177.723C-57.4594 166.174 -23.2053 149.014 15.2508 151.343C52.4855 153.592 87.0514 173.033 113.765 196.874C140.172 220.443 160.52 248.395 182.648 276.326C204.85 304.513 231.497 334.972 265.621 349.785C288.132 359.489 309.267 361.405 329.607 361.383C348.952 361.361 367.833 359.977 386.766 359.981C478.919 359.994 598.586 406.812 684.353 477.241C712.183 500.096 737.272 524.351 764.133 545.564C790.775 566.603 818.563 584.466 852.54 594.972C915.397 614.378 987.21 601.701 1055.79 598.162C1185.99 591.429 1312.74 623.284 1401.31 700.206" stroke="url(#paint33_linear_428_7647)" stroke-miterlimit="10"/>
<path d="M-564.396 83.3537C-496.705 135.483 -390.601 116.152 -321.23 157.099C-299.628 169.851 -283.09 187.438 -259.358 196.066C-214.252 212.466 -160.388 190.984 -112.584 175.195C-75.4825 162.939 -41.0911 144.151 -2.02645 146.24C35.8031 148.261 70.7409 168.778 97.1234 193.807C123.231 218.579 142.753 247.868 164.314 276.938C185.961 306.298 212.583 337.955 247.532 352.314C270.61 361.727 292.205 362.565 313.006 361.197C332.691 359.9 351.912 357.003 371.15 355.689C465.019 349.271 588.938 394.376 674.524 467.94C702.25 491.77 726.827 517.448 753.218 540.107C779.443 562.624 806.916 581.994 841.178 593.543C904.553 614.876 977.727 601.802 1047.34 598.894C1179.5 593.365 1307.84 630.71 1394.49 712.819" stroke="url(#paint34_linear_428_7647)" stroke-miterlimit="10"/>
<path d="M-565.469 90.2128C-500.009 139.446 -399.153 122.634 -331.77 159.569C-310.787 171.07 -294.413 186.867 -271.522 194.415C-228.017 208.764 -176.544 188.48 -130.963 172.668C-93.5169 159.679 -58.9836 139.288 -19.3115 141.142C19.1102 142.933 54.4198 164.524 80.4706 190.744C106.281 216.724 124.975 247.343 145.966 277.554C167.056 308.082 193.651 340.943 229.426 354.845C253.073 363.969 275.126 363.734 296.387 361.013C316.417 358.448 335.974 354.029 355.516 351.399C451.1 338.534 579.277 381.941 664.676 458.641C692.293 483.446 716.359 510.548 742.282 534.655C768.087 558.648 795.248 579.525 829.794 592.117C893.685 615.377 968.225 601.904 1038.87 599.63C1172.99 595.305 1302.92 638.141 1387.65 725.435" stroke="url(#paint35_linear_428_7647)" stroke-miterlimit="10"/>
<path d="M-566.539 97.0732C-503.311 143.409 -407.707 129.12 -342.307 162.041C-321.942 172.293 -305.733 186.298 -283.686 192.765C-241.783 205.063 -192.716 185.931 -149.342 170.139C-111.562 156.382 -76.8721 134.423 -36.5914 136.038C2.42634 137.598 38.0554 160.317 63.8241 187.674C89.2827 214.909 107.203 246.811 127.627 278.163C148.162 309.864 174.73 343.926 211.332 357.372C235.545 366.205 258.062 364.903 279.781 360.825C300.156 356.996 320.045 351.046 339.894 347.105C437.185 327.78 569.631 369.5 654.842 449.339C682.354 475.117 705.901 503.645 731.364 529.197C756.747 554.672 783.596 577.051 818.425 590.686C882.835 615.872 958.737 601.999 1030.42 600.36C1166.49 597.238 1298.02 645.565 1380.82 738.046" stroke="url(#paint36_linear_428_7647)" stroke-miterlimit="10"/>
<path d="M-567.611 103.93C-506.611 147.37 -416.26 135.602 -352.843 164.509C-333.097 173.51 -317.051 185.722 -295.846 191.113C-255.545 201.359 -208.899 183.343 -167.718 167.61C-129.615 153.051 -94.7596 129.556 -53.8715 130.935C-14.2615 132.265 21.7393 156.059 47.1774 184.604C72.3406 213.041 89.4318 246.279 109.285 278.772C129.263 311.642 155.806 346.908 193.235 359.898C218.017 368.441 241 366.078 263.171 360.635C283.896 355.548 304.112 348.061 324.269 342.809C423.258 317.015 560.136 356.896 645.002 440.034C672.462 466.734 695.44 496.742 720.438 523.736C745.398 550.689 771.938 574.574 807.052 589.252C871.976 616.367 949.241 602.094 1021.96 601.088C1159.99 599.17 1293.11 652.99 1373.99 750.655" stroke="url(#paint37_linear_428_7647)" stroke-miterlimit="10"/>
<path d="M-568.684 110.789C-509.916 151.332 -424.814 142.087 -363.383 166.979C-344.253 174.73 -328.375 185.151 -308.01 189.462C-269.312 197.66 -225.098 180.72 -186.097 165.083C-147.691 149.682 -112.652 124.694 -71.1565 125.836C-30.9516 126.938 5.42219 151.804 30.5258 181.539C55.3898 211.18 71.6526 245.75 90.9405 279.386C110.361 313.427 136.881 349.896 175.136 362.426C200.485 370.679 223.94 367.255 246.558 360.447C267.636 354.102 288.174 345.074 308.641 338.515C409.318 306.244 550.48 344.463 635.159 430.731C662.512 458.41 684.97 489.838 709.508 518.276C734.042 546.713 760.274 572.098 795.674 587.82C861.117 616.862 939.744 602.189 1013.5 601.817C1153.48 601.103 1288.19 660.413 1367.16 763.264" stroke="url(#paint38_linear_428_7647)" stroke-miterlimit="10"/>
<path d="M-569.755 117.649C-513.219 155.298 -433.368 148.572 -373.92 169.45C-355.408 175.953 -339.695 184.582 -320.174 187.812C-283.078 193.958 -241.319 178.063 -204.476 162.553C-165.786 146.267 -130.541 119.829 -88.4393 120.732C-47.6395 121.605 -10.8954 147.543 13.8765 178.468C38.4413 209.313 53.8783 245.216 72.5956 279.994C91.4625 315.205 117.952 352.876 157.036 364.951C182.953 372.91 206.88 368.432 229.945 360.256C251.381 352.658 272.233 342.085 293.011 334.218C395.368 295.459 540.821 332.029 625.317 421.425C652.564 450.08 674.5 482.934 698.578 512.816C722.685 542.734 748.612 569.622 784.293 586.389C850.252 617.357 930.243 602.288 1005.03 602.551C1146.97 603.041 1283.27 667.841 1360.32 775.881" stroke="url(#paint39_linear_428_7647)" stroke-miterlimit="10"/>
<path d="M-570.827 124.506C-516.519 159.259 -441.921 155.055 -384.459 171.918C-366.566 177.169 -351.016 184.005 -332.336 186.159C-296.843 190.254 -257.557 175.37 -222.854 160.024C-183.907 142.8 -148.432 114.964 -105.719 115.629C-64.3273 116.272 -27.2103 143.283 -2.77126 175.401C21.4943 207.449 36.1056 244.687 54.2551 280.607C72.5643 316.989 99.0298 355.862 138.938 367.479C165.424 375.149 189.826 369.617 213.334 360.072C235.129 351.222 256.294 339.101 277.384 329.927C381.408 284.681 531.167 319.6 615.476 412.123C642.616 441.757 664.031 476.036 687.65 507.358C711.329 538.758 736.952 567.151 772.918 584.958C839.396 617.853 920.749 602.385 996.573 603.281C1140.46 604.974 1278.36 675.266 1353.49 788.492" stroke="url(#paint40_linear_428_7647)" stroke-miterlimit="10"/>
<path d="M-571.897 131.366C-519.821 163.223 -450.472 161.541 -394.993 174.39C-377.718 178.393 -362.334 183.437 -344.499 184.512C-310.607 186.556 -273.813 172.655 -241.233 157.501C-202.06 139.28 -166.323 110.105 -123.003 110.534C-81.0148 110.946 -43.5271 139.035 -19.4214 172.34C4.54768 205.593 18.3305 244.163 35.9095 281.224C53.6648 318.775 80.1027 358.852 120.838 370.013C147.89 377.392 172.776 370.807 196.721 359.89C218.879 349.787 240.35 336.121 261.755 325.64C367.44 273.902 521.511 307.174 605.636 402.827C632.67 433.437 653.506 469.182 676.723 501.906C699.917 534.828 725.291 564.682 761.543 583.533C828.54 618.355 911.253 602.486 988.114 604.018C1133.96 606.912 1273.45 682.697 1346.65 801.11" stroke="url(#paint41_linear_428_7647)" stroke-miterlimit="10"/>
<path d="M-572.97 138.225C-523.125 167.185 -459.025 168.023 -405.533 176.86C-388.877 179.612 -373.656 182.863 -356.662 182.862C-324.37 182.855 -290.097 169.912 -259.611 154.971C-220.256 135.686 -184.213 105.237 -140.285 105.429C-97.7024 105.613 -59.8444 134.773 -36.0704 169.269C-12.4005 203.726 0.555456 243.633 17.5677 281.833C34.7654 320.556 61.1795 361.834 102.741 372.538C130.362 379.628 155.731 371.987 180.111 359.7C202.635 348.348 224.383 333.088 246.131 321.345C353.356 262.909 511.858 294.742 595.797 393.523C622.725 425.109 643.043 462.269 665.797 496.445C688.57 530.84 713.634 562.206 750.167 582.098C817.68 618.846 901.756 602.581 979.653 604.745C1127.45 608.843 1268.54 690.118 1339.82 813.717" stroke="url(#paint42_linear_428_7647)" stroke-miterlimit="10"/>
<path d="M-574.042 145.082C-526.426 171.146 -467.58 174.505 -416.071 179.328C-400.032 180.829 -384.978 182.29 -368.828 181.207C-338.138 179.153 -306.409 167.139 -277.992 152.44C-238.509 132.014 -202.104 100.371 -157.571 100.324C-114.396 100.278 -76.1622 130.512 -52.7226 166.197C-29.3519 201.858 -17.2244 243.097 -0.777223 282.44C15.8666 322.333 42.2533 364.815 84.6408 375.063C112.828 381.862 138.684 373.169 163.499 359.51C186.393 346.904 208.444 330.112 230.503 317.048C339.402 252.189 502.203 282.307 585.957 384.218C612.779 416.783 632.583 455.356 654.871 490.984C677.224 526.849 701.973 559.728 738.793 580.664C806.823 619.342 892.264 602.674 971.194 605.472C1120.95 610.775 1263.63 697.542 1332.99 826.325" stroke="url(#paint43_linear_428_7647)" stroke-miterlimit="10"/>
<path d="M-575.113 151.942C-529.728 175.109 -476.132 180.991 -426.606 181.8C-411.184 182.053 -396.295 181.721 -380.986 179.559C-351.899 175.453 -322.743 164.357 -296.366 149.916C-256.816 128.258 -219.991 95.5106 -174.848 95.2284C-131.078 94.9533 -92.4738 126.259 -69.366 163.135C-46.2934 199.996 -34.9927 242.573 -19.1161 283.057C-3.02986 324.121 23.3303 367.804 66.5442 377.595C95.3009 384.105 121.664 374.387 146.887 359.325C170.17 345.498 192.505 327.141 214.876 312.758C325.45 241.477 492.548 269.88 576.115 374.918C602.831 408.46 622.121 448.449 643.942 485.531C665.873 522.869 690.312 557.259 727.416 579.238C795.962 619.842 882.767 602.778 962.732 606.208C1114.44 612.714 1258.72 704.972 1326.15 838.942" stroke="url(#paint44_linear_428_7647)" stroke-miterlimit="10"/>
<path d="M-576.186 158.801C-494.064 197.378 -393.139 192.973 -314.746 147.389C-275.21 124.397 -237.884 90.6478 -192.132 90.1268C-147.767 89.6231 -108.793 122.001 -86.0176 160.07C-63.2415 198.136 -52.7693 242.045 -37.4605 283.671C-21.9308 325.904 4.40557 370.788 48.4448 380.126C104.775 392.068 151.931 341.224 199.249 308.468C311.499 230.764 482.894 257.451 566.273 365.619C619.683 434.904 641.533 531.928 716.04 577.81C785.105 620.341 873.269 602.876 954.271 606.941C1107.93 614.651 1253.81 712.4 1319.32 851.558" stroke="url(#paint45_linear_428_7647)" stroke-miterlimit="10"/>
</g>
</g>
<defs>
<linearGradient id="paint0_linear_428_7647" x1="1643.81" y1="789.514" x2="-289.64" y2="4.58257" gradientUnits="userSpaceOnUse">
<stop stop-color="#FFDEDE"/>
<stop offset="0.33" stop-color="#FF9C9C"/>
<stop offset="0.66" stop-color="#FF5656"/>
<stop offset="1" stop-color="#E72D2A"/>
</linearGradient>
<linearGradient id="paint1_linear_428_7647" x1="1639.13" y1="796.819" x2="-291.381" y2="13.0804" gradientUnits="userSpaceOnUse">
<stop stop-color="#FFDEDE"/>
<stop offset="0.33" stop-color="#FF9C9C"/>
<stop offset="0.66" stop-color="#FF5656"/>
<stop offset="1" stop-color="#E72D2A"/>
</linearGradient>
<linearGradient id="paint2_linear_428_7647" x1="1634.45" y1="804.128" x2="-293.121" y2="21.5828" gradientUnits="userSpaceOnUse">
<stop stop-color="#FFDEDE"/>
<stop offset="0.33" stop-color="#FF9C9C"/>
<stop offset="0.66" stop-color="#FF5656"/>
<stop offset="1" stop-color="#E72D2A"/>
</linearGradient>
<linearGradient id="paint3_linear_428_7647" x1="1629.77" y1="811.444" x2="-294.859" y2="30.095" gradientUnits="userSpaceOnUse">
<stop stop-color="#FFDEDE"/>
<stop offset="0.33" stop-color="#FF9C9C"/>
<stop offset="0.66" stop-color="#FF5656"/>
<stop offset="1" stop-color="#E72D2A"/>
</linearGradient>
<linearGradient id="paint4_linear_428_7647" x1="1625.15" y1="818.605" x2="-296.54" y2="38.4496" gradientUnits="userSpaceOnUse">
<stop stop-color="#FFDEDE"/>
<stop offset="0.33" stop-color="#FF9C9C"/>
<stop offset="0.66" stop-color="#FF5656"/>
<stop offset="1" stop-color="#E72D2A"/>
</linearGradient>
<linearGradient id="paint5_linear_428_7647" x1="1620.7" y1="825.353" x2="-298.043" y2="46.3937" gradientUnits="userSpaceOnUse">
<stop stop-color="#FFDEDE"/>
<stop offset="0.33" stop-color="#FF9C9C"/>
<stop offset="0.66" stop-color="#FF5656"/>
<stop offset="1" stop-color="#E72D2A"/>
</linearGradient>
<linearGradient id="paint6_linear_428_7647" x1="1616.4" y1="831.706" x2="-299.399" y2="53.9395" gradientUnits="userSpaceOnUse">
<stop stop-color="#FFDEDE"/>
<stop offset="0.33" stop-color="#FF9C9C"/>
<stop offset="0.66" stop-color="#FF5656"/>
<stop offset="1" stop-color="#E72D2A"/>
</linearGradient>
<linearGradient id="paint7_linear_428_7647" x1="1611.78" y1="838.88" x2="-301.083" y2="62.3066" gradientUnits="userSpaceOnUse">
<stop stop-color="#FFDEDE"/>
<stop offset="0.33" stop-color="#FF9C9C"/>
<stop offset="0.66" stop-color="#FF5656"/>
<stop offset="1" stop-color="#E72D2A"/>
</linearGradient>
<linearGradient id="paint8_linear_428_7647" x1="1607.15" y1="846.058" x2="-302.774" y2="70.6779" gradientUnits="userSpaceOnUse">
<stop stop-color="#FFDEDE"/>
<stop offset="0.33" stop-color="#FF9C9C"/>
<stop offset="0.66" stop-color="#FF5656"/>
<stop offset="1" stop-color="#E72D2A"/>
</linearGradient>
<linearGradient id="paint9_linear_428_7647" x1="1602.66" y1="852.909" x2="-304.32" y2="78.7255" gradientUnits="userSpaceOnUse">
<stop stop-color="#FFDEDE"/>
<stop offset="0.33" stop-color="#FF9C9C"/>
<stop offset="0.66" stop-color="#FF5656"/>
<stop offset="1" stop-color="#E72D2A"/>
</linearGradient>
<linearGradient id="paint10_linear_428_7647" x1="1598.29" y1="859.453" x2="-305.747" y2="86.4641" gradientUnits="userSpaceOnUse">
<stop stop-color="#FFDEDE"/>
<stop offset="0.33" stop-color="#FF9C9C"/>
<stop offset="0.66" stop-color="#FF5656"/>
<stop offset="1" stop-color="#E72D2A"/>
</linearGradient>
<linearGradient id="paint11_linear_428_7647" x1="1594.03" y1="865.726" x2="-307.078" y2="93.9258" gradientUnits="userSpaceOnUse">
<stop stop-color="#FFDEDE"/>
<stop offset="0.33" stop-color="#FF9C9C"/>
<stop offset="0.66" stop-color="#FF5656"/>
<stop offset="1" stop-color="#E72D2A"/>
</linearGradient>
<linearGradient id="paint12_linear_428_7647" x1="1589.86" y1="871.765" x2="-308.294" y2="101.162" gradientUnits="userSpaceOnUse">
<stop stop-color="#FFDEDE"/>
<stop offset="0.33" stop-color="#FF9C9C"/>
<stop offset="0.66" stop-color="#FF5656"/>
<stop offset="1" stop-color="#E72D2A"/>
</linearGradient>
<linearGradient id="paint13_linear_428_7647" x1="1585.79" y1="877.586" x2="-309.435" y2="108.174" gradientUnits="userSpaceOnUse">
<stop stop-color="#FFDEDE"/>
<stop offset="0.33" stop-color="#FF9C9C"/>
<stop offset="0.66" stop-color="#FF5656"/>
<stop offset="1" stop-color="#E72D2A"/>
</linearGradient>
<linearGradient id="paint14_linear_428_7647" x1="1581.79" y1="883.22" x2="-310.496" y2="115.002" gradientUnits="userSpaceOnUse">
<stop stop-color="#FFDEDE"/>
<stop offset="0.33" stop-color="#FF9C9C"/>
<stop offset="0.66" stop-color="#FF5656"/>
<stop offset="1" stop-color="#E72D2A"/>
</linearGradient>
<linearGradient id="paint15_linear_428_7647" x1="1579.12" y1="885.575" x2="-310.219" y2="118.552" gradientUnits="userSpaceOnUse">
<stop stop-color="#FFDEDE"/>
<stop offset="0.33" stop-color="#FF9C9C"/>
<stop offset="0.66" stop-color="#FF5656"/>
<stop offset="1" stop-color="#E72D2A"/>
</linearGradient>
<linearGradient id="paint16_linear_428_7647" x1="1577.56" y1="885.202" x2="-308.836" y2="119.376" gradientUnits="userSpaceOnUse">
<stop stop-color="#FFDEDE"/>
<stop offset="0.33" stop-color="#FF9C9C"/>
<stop offset="0.66" stop-color="#FF5656"/>
<stop offset="1" stop-color="#E72D2A"/>
</linearGradient>
<linearGradient id="paint17_linear_428_7647" x1="1576" y1="884.816" x2="-307.451" y2="120.183" gradientUnits="userSpaceOnUse">
<stop stop-color="#FFDEDE"/>
<stop offset="0.33" stop-color="#FF9C9C"/>
<stop offset="0.66" stop-color="#FF5656"/>
<stop offset="1" stop-color="#E72D2A"/>
</linearGradient>
<linearGradient id="paint18_linear_428_7647" x1="1574.45" y1="884.42" x2="-306.066" y2="120.98" gradientUnits="userSpaceOnUse">
<stop stop-color="#FFDEDE"/>
<stop offset="0.33" stop-color="#FF9C9C"/>
<stop offset="0.66" stop-color="#FF5656"/>
<stop offset="1" stop-color="#E72D2A"/>
</linearGradient>
<linearGradient id="paint19_linear_428_7647" x1="1572.91" y1="883.998" x2="-304.663" y2="121.753" gradientUnits="userSpaceOnUse">
<stop stop-color="#FFDEDE"/>
<stop offset="0.33" stop-color="#FF9C9C"/>
<stop offset="0.66" stop-color="#FF5656"/>
<stop offset="1" stop-color="#E72D2A"/>
</linearGradient>
<linearGradient id="paint20_linear_428_7647" x1="1571.36" y1="883.592" x2="-303.271" y2="122.54" gradientUnits="userSpaceOnUse">
<stop stop-color="#FFDEDE"/>
<stop offset="0.33" stop-color="#FF9C9C"/>
<stop offset="0.66" stop-color="#FF5656"/>
<stop offset="1" stop-color="#E72D2A"/>
</linearGradient>
<linearGradient id="paint21_linear_428_7647" x1="1569.81" y1="883.189" x2="-301.88" y2="123.331" gradientUnits="userSpaceOnUse">
<stop stop-color="#FFDEDE"/>
<stop offset="0.33" stop-color="#FF9C9C"/>
<stop offset="0.66" stop-color="#FF5656"/>
<stop offset="1" stop-color="#E72D2A"/>
</linearGradient>
<linearGradient id="paint22_linear_428_7647" x1="1568.26" y1="882.793" x2="-300.49" y2="124.13" gradientUnits="userSpaceOnUse">
<stop stop-color="#FFDEDE"/>
<stop offset="0.33" stop-color="#FF9C9C"/>
<stop offset="0.66" stop-color="#FF5656"/>
<stop offset="1" stop-color="#E72D2A"/>
</linearGradient>
<linearGradient id="paint23_linear_428_7647" x1="-514.242" y1="-86.6001" x2="1419.21" y2="698.331" gradientUnits="userSpaceOnUse">
<stop stop-color="#FFDEDE"/>
<stop offset="0.33" stop-color="#FF9C9C"/>
<stop offset="0.66" stop-color="#FF5656"/>
<stop offset="1" stop-color="#E72D2A"/>
</linearGradient>
<linearGradient id="paint24_linear_428_7647" x1="-515.979" y1="-78.1004" x2="1414.53" y2="705.638" gradientUnits="userSpaceOnUse">
<stop stop-color="#FFDEDE"/>
<stop offset="0.33" stop-color="#FF9C9C"/>
<stop offset="0.66" stop-color="#FF5656"/>
<stop offset="1" stop-color="#E72D2A"/>
</linearGradient>
<linearGradient id="paint25_linear_428_7647" x1="-517.719" y1="-69.598" x2="1409.85" y2="712.947" gradientUnits="userSpaceOnUse">
<stop stop-color="#FFDEDE"/>
<stop offset="0.33" stop-color="#FF9C9C"/>
<stop offset="0.66" stop-color="#FF5656"/>
<stop offset="1" stop-color="#E72D2A"/>
</linearGradient>
<linearGradient id="paint26_linear_428_7647" x1="-519.459" y1="-61.0868" x2="1405.17" y2="720.262" gradientUnits="userSpaceOnUse">
<stop stop-color="#FFDEDE"/>
<stop offset="0.33" stop-color="#FF9C9C"/>
<stop offset="0.66" stop-color="#FF5656"/>
<stop offset="1" stop-color="#E72D2A"/>
</linearGradient>
<linearGradient id="paint27_linear_428_7647" x1="-521.139" y1="-52.7321" x2="1400.55" y2="727.424" gradientUnits="userSpaceOnUse">
<stop stop-color="#FFDEDE"/>
<stop offset="0.33" stop-color="#FF9C9C"/>
<stop offset="0.66" stop-color="#FF5656"/>
<stop offset="1" stop-color="#E72D2A"/>
</linearGradient>
<linearGradient id="paint28_linear_428_7647" x1="-522.652" y1="-44.7914" x2="1396.09" y2="734.168" gradientUnits="userSpaceOnUse">
<stop stop-color="#FFDEDE"/>
<stop offset="0.33" stop-color="#FF9C9C"/>
<stop offset="0.66" stop-color="#FF5656"/>
<stop offset="1" stop-color="#E72D2A"/>
</linearGradient>
<linearGradient id="paint29_linear_428_7647" x1="-524.001" y1="-37.2433" x2="1391.8" y2="740.523" gradientUnits="userSpaceOnUse">
<stop stop-color="#FFDEDE"/>
<stop offset="0.33" stop-color="#FF9C9C"/>
<stop offset="0.66" stop-color="#FF5656"/>
<stop offset="1" stop-color="#E72D2A"/>
</linearGradient>
<linearGradient id="paint30_linear_428_7647" x1="-525.686" y1="-28.8764" x2="1387.18" y2="747.697" gradientUnits="userSpaceOnUse">
<stop stop-color="#FFDEDE"/>
<stop offset="0.33" stop-color="#FF9C9C"/>
<stop offset="0.66" stop-color="#FF5656"/>
<stop offset="1" stop-color="#E72D2A"/>
</linearGradient>
<linearGradient id="paint31_linear_428_7647" x1="-527.371" y1="-20.5028" x2="1382.55" y2="754.877" gradientUnits="userSpaceOnUse">
<stop stop-color="#FFDEDE"/>
<stop offset="0.33" stop-color="#FF9C9C"/>
<stop offset="0.66" stop-color="#FF5656"/>
<stop offset="1" stop-color="#E72D2A"/>
</linearGradient>
<linearGradient id="paint32_linear_428_7647" x1="-528.925" y1="-12.4584" x2="1378.05" y2="761.725" gradientUnits="userSpaceOnUse">
<stop stop-color="#FFDEDE"/>
<stop offset="0.33" stop-color="#FF9C9C"/>
<stop offset="0.66" stop-color="#FF5656"/>
<stop offset="1" stop-color="#E72D2A"/>
</linearGradient>
<linearGradient id="paint33_linear_428_7647" x1="-530.355" y1="-4.72103" x2="1373.68" y2="768.268" gradientUnits="userSpaceOnUse">
<stop stop-color="#FFDEDE"/>
<stop offset="0.33" stop-color="#FF9C9C"/>
<stop offset="0.66" stop-color="#FF5656"/>
<stop offset="1" stop-color="#E72D2A"/>
</linearGradient>
<linearGradient id="paint34_linear_428_7647" x1="-531.672" y1="2.74638" x2="1369.43" y2="774.546" gradientUnits="userSpaceOnUse">
<stop stop-color="#FFDEDE"/>
<stop offset="0.33" stop-color="#FF9C9C"/>
<stop offset="0.66" stop-color="#FF5656"/>
<stop offset="1" stop-color="#E72D2A"/>
</linearGradient>
<linearGradient id="paint35_linear_428_7647" x1="-532.896" y1="9.97884" x2="1365.26" y2="780.582" gradientUnits="userSpaceOnUse">
<stop stop-color="#FFDEDE"/>
<stop offset="0.33" stop-color="#FF9C9C"/>
<stop offset="0.66" stop-color="#FF5656"/>
<stop offset="1" stop-color="#E72D2A"/>
</linearGradient>
<linearGradient id="paint36_linear_428_7647" x1="-534.03" y1="16.9949" x2="1361.19" y2="786.406" gradientUnits="userSpaceOnUse">
<stop stop-color="#FFDEDE"/>
<stop offset="0.33" stop-color="#FF9C9C"/>
<stop offset="0.66" stop-color="#FF5656"/>
<stop offset="1" stop-color="#E72D2A"/>
</linearGradient>
<linearGradient id="paint37_linear_428_7647" x1="-535.09" y1="23.8226" x2="1357.19" y2="792.041" gradientUnits="userSpaceOnUse">
<stop stop-color="#FFDEDE"/>
<stop offset="0.33" stop-color="#FF9C9C"/>
<stop offset="0.66" stop-color="#FF5656"/>
<stop offset="1" stop-color="#E72D2A"/>
</linearGradient>
<linearGradient id="paint38_linear_428_7647" x1="-534.819" y1="27.3705" x2="1354.52" y2="794.393" gradientUnits="userSpaceOnUse">
<stop stop-color="#FFDEDE"/>
<stop offset="0.33" stop-color="#FF9C9C"/>
<stop offset="0.66" stop-color="#FF5656"/>
<stop offset="1" stop-color="#E72D2A"/>
</linearGradient>
<linearGradient id="paint39_linear_428_7647" x1="-533.438" y1="28.193" x2="1352.95" y2="794.02" gradientUnits="userSpaceOnUse">
<stop stop-color="#FFDEDE"/>
<stop offset="0.33" stop-color="#FF9C9C"/>
<stop offset="0.66" stop-color="#FF5656"/>
<stop offset="1" stop-color="#E72D2A"/>
</linearGradient>
<linearGradient id="paint40_linear_428_7647" x1="-532.054" y1="28.9998" x2="1351.4" y2="793.633" gradientUnits="userSpaceOnUse">
<stop stop-color="#FFDEDE"/>
<stop offset="0.33" stop-color="#FF9C9C"/>
<stop offset="0.66" stop-color="#FF5656"/>
<stop offset="1" stop-color="#E72D2A"/>
</linearGradient>
<linearGradient id="paint41_linear_428_7647" x1="-530.664" y1="29.7994" x2="1349.85" y2="793.24" gradientUnits="userSpaceOnUse">
<stop stop-color="#FFDEDE"/>
<stop offset="0.33" stop-color="#FF9C9C"/>
<stop offset="0.66" stop-color="#FF5656"/>
<stop offset="1" stop-color="#E72D2A"/>
</linearGradient>
<linearGradient id="paint42_linear_428_7647" x1="-529.265" y1="30.5703" x2="1348.3" y2="792.815" gradientUnits="userSpaceOnUse">
<stop stop-color="#FFDEDE"/>
<stop offset="0.33" stop-color="#FF9C9C"/>
<stop offset="0.66" stop-color="#FF5656"/>
<stop offset="1" stop-color="#E72D2A"/>
</linearGradient>
<linearGradient id="paint43_linear_428_7647" x1="-527.873" y1="31.3575" x2="1346.76" y2="792.409" gradientUnits="userSpaceOnUse">
<stop stop-color="#FFDEDE"/>
<stop offset="0.33" stop-color="#FF9C9C"/>
<stop offset="0.66" stop-color="#FF5656"/>
<stop offset="1" stop-color="#E72D2A"/>
</linearGradient>
<linearGradient id="paint44_linear_428_7647" x1="-526.48" y1="32.1494" x2="1345.21" y2="792.007" gradientUnits="userSpaceOnUse">
<stop stop-color="#FFDEDE"/>
<stop offset="0.33" stop-color="#FF9C9C"/>
<stop offset="0.66" stop-color="#FF5656"/>
<stop offset="1" stop-color="#E72D2A"/>
</linearGradient>
<linearGradient id="paint45_linear_428_7647" x1="-525.092" y1="32.947" x2="1343.66" y2="791.61" gradientUnits="userSpaceOnUse">
<stop stop-color="#FFDEDE"/>
<stop offset="0.33" stop-color="#FF9C9C"/>
<stop offset="0.66" stop-color="#FF5656"/>
<stop offset="1" stop-color="#E72D2A"/>
</linearGradient>
<clipPath id="clip0_428_7647">
<rect width="2086.78" height="386.026" fill="white" transform="matrix(-0.926556 -0.376158 -0.376158 0.926556 1694.35 665.152)"/>
</clipPath>
<clipPath id="clip1_428_7647">
<rect width="2086.78" height="386.026" fill="white" transform="translate(-463.793 -211) rotate(22.0959)"/>
</clipPath>
</defs>
</svg>
